<?xml version="1.0" standalone="no"?>
<!DOCTYPE svg PUBLIC "-//W3C//DTD SVG 1.1//EN" "http://www.w3.org/Graphics/SVG/1.1/DTD/svg11.dtd" >
<svg xmlns="http://www.w3.org/2000/svg">
<metadata></metadata>
<defs>
<font id="heavitasregular" horiz-adv-x="1607" >
<font-face units-per-em="2048" ascent="1536" descent="-512" />
<missing-glyph horiz-adv-x="700" />
<glyph horiz-adv-x="0" />
<glyph unicode="&#xd;" horiz-adv-x="700" />
<glyph horiz-adv-x="0" />
<glyph horiz-adv-x="0" />
<glyph unicode=" "  horiz-adv-x="700" />
<glyph unicode="&#x09;" horiz-adv-x="700" />
<glyph unicode="&#xa0;" horiz-adv-x="700" />
<glyph unicode="!" horiz-adv-x="600" d="M61 1448q-2 23 11.5 36t36.5 13h342q20 0 33.5 -13.5t11.5 -35.5l-52 -883q-2 -20 -16.5 -34.5t-34.5 -14.5h-227q-23 0 -37 14.5t-16 34.5zM78 49v283q0 23 13 36t36 13h307q20 0 34.5 -13.5t14.5 -35.5v-283q0 -20 -14.5 -34.5t-34.5 -14.5h-307q-23 0 -36 14.5 t-13 34.5z" />
<glyph unicode="&#x22;" horiz-adv-x="974" d="M29 1468q-2 20 11 35t34 15h309q20 0 33.5 -14.5t11.5 -35.5l-33 -452q-2 -20 -17.5 -34.5t-35.5 -14.5h-225q-20 0 -35.5 14t-18.5 35zM504 1468q-2 20 11 35t34 15h307q20 0 33.5 -14.5t11.5 -35.5l-35 -452q-2 -20 -17.5 -34.5t-35.5 -14.5h-225q-20 0 -35.5 14 t-17.5 35z" />
<glyph unicode="#" horiz-adv-x="1753" d="M-10 385l100 272q8 18 26.5 31.5t41.5 13.5h147q20 0 38.5 13.5t27.5 34.5l12 34q8 18 -1 31.5t-30 13.5h-143q-23 0 -31 13.5t0 31.5l103 254q8 18 26.5 32t40.5 14h144q20 0 39.5 13t25.5 34q23 57 47.5 119.5t46.5 115.5q8 18 26.5 31.5t41.5 13.5h272q20 0 29.5 -13 t1.5 -32l-92 -235q-6 -20 2 -33.5t31 -13.5h59q20 0 39.5 13t28.5 32q23 59 47 120.5t47 116.5q8 18 26.5 31.5t40.5 13.5h275q20 0 29.5 -13t0.5 -32l-94 -235q-8 -20 0 -33.5t31 -13.5h152q20 0 29 -13.5t1 -32.5l-100 -251q-8 -20 -27.5 -34t-40.5 -14h-153 q-23 0 -41.5 -13t-24.5 -32l-12 -34q-8 -20 1 -34t32 -14h147q20 0 29.5 -13t1.5 -32l-103 -272q-6 -20 -25.5 -33.5t-39.5 -13.5h-148q-23 0 -41 -13.5t-26 -31.5q-25 -59 -51.5 -124t-48.5 -122q-6 -20 -26 -33.5t-40 -13.5h-272q-23 0 -31 13.5t-2 33.5l96 246 q8 18 -1 31.5t-30 13.5h-63q-23 0 -41.5 -13.5t-26.5 -31.5l-96 -246q-6 -20 -25.5 -33.5t-39.5 -13.5h-271q-23 0 -31 13.5t-2 33.5l95 246q8 18 -1.5 31.5t-29.5 13.5h-143q-23 0 -32 13.5t-1 33.5zM723 745q-8 -25 3 -41t38 -16h76q25 0 48 16.5t32 40.5l16 43 q8 23 -4 39.5t-37 16.5h-74q-25 0 -48 -16.5t-34 -39.5z" />
<glyph unicode="$" horiz-adv-x="1392" d="M43 244.5q-2 21.5 10 38.5l158 227q12 16 32.5 20.5t37.5 -6.5q111 -72 219 -112.5t202 -40.5q90 0 137.5 25.5t47.5 76.5q0 27 -20.5 42t-54.5 25.5t-79 16.5t-92 16q-45 8 -105.5 19.5t-124 33t-126 54.5t-111.5 84t-78.5 121.5t-29.5 167.5q0 94 25.5 166.5t70.5 127 t103.5 89t125.5 57.5q20 6 33.5 23.5t13.5 37.5v64q0 20 14.5 34.5t34.5 14.5h304q20 0 34.5 -14.5t14.5 -34.5v-55q0 -20 14 -38t35 -22q176 -45 334 -172q16 -12 18 -32.5t-10 -36.5l-160 -228q-12 -16 -32.5 -20t-37.5 8q-104 66 -194 93.5t-166 27.5q-23 0 -52.5 -1 t-56 -8.5t-44 -23.5t-17.5 -45t43 -51.5t98.5 -39t106.5 -25.5t65 -11q74 -14 162 -42t165 -82t129 -141t52 -218q0 -201 -109.5 -311.5t-293.5 -143.5q-20 -4 -34.5 -20.5t-14.5 -36.5v-60q0 -20 -14.5 -34.5t-34.5 -14.5h-304q-20 0 -34.5 14.5t-14.5 34.5v84q0 20 -13 39 t-34 25q-98 29 -180 76t-150 102q-16 14 -18 35.5z" />
<glyph unicode="%" horiz-adv-x="2054" d="M35 1057q0 98 31.5 181t88 143.5t133.5 94t167 33.5t166.5 -33.5t132 -94t87 -143.5t31.5 -181q0 -96 -31.5 -179t-88 -143.5t-133 -94.5t-164.5 -34q-90 0 -167 34t-133.5 94.5t-88 142.5t-31.5 180zM401 1057q0 -6 1 -28.5t7.5 -45t16.5 -41t29 -18.5q14 0 24 13 t16.5 32.5t9.5 43t3 44.5q0 18 -3 40.5t-9.5 43t-16.5 34t-24 13.5q-18 0 -28.5 -17.5t-17 -39t-7.5 -44t-1 -30.5zM431.5 12.5q-7.5 12.5 2.5 30.5l846 1417q10 16 31.5 28.5t42.5 12.5h241q20 0 27.5 -12t-2.5 -29l-844 -1417q-10 -18 -31.5 -30.5t-42.5 -12.5h-243 q-20 0 -27.5 12.5zM1178 424q0 98 31.5 180t88 142.5t133 94t166.5 33.5t167 -33.5t132.5 -94t87 -142.5t31.5 -180q0 -96 -31.5 -179t-88 -143.5t-133 -95.5t-165.5 -35q-90 0 -166.5 34t-133 94.5t-88 143.5t-31.5 181zM1544 424q0 -6 1 -28.5t7.5 -45t16.5 -41t28 -18.5 q14 0 24.5 13t17 32.5t9.5 43t3 44.5q0 18 -3 41.5t-9.5 43t-16.5 34t-25 14.5q-18 0 -28 -17.5t-16.5 -40t-7.5 -45t-1 -30.5z" />
<glyph unicode="&#x26;" horiz-adv-x="1402" d="M33 360q-16 129 33 225.5t147 178.5q4 4 10 8q8 6 25 19q16 12 18 31.5t-8 37.5q-84 143 -65 301q10 80 48 146.5t94 113.5t128 74t149 27q119 0 223.5 -58.5t153.5 -169.5q33 -74 35 -147.5t-19.5 -141t-64.5 -127t-100 -104.5q-16 -12 -18.5 -29.5t12.5 -33.5l32 -31 q14 -16 31.5 -13t28.5 19q20 35 37.5 65.5t27.5 53.5q10 18 28.5 25.5t39.5 -1.5l223 -98q18 -8 25.5 -26.5t-2.5 -36.5q-20 -37 -56.5 -97.5t-83.5 -130.5q-12 -16 -11 -38.5t15 -36.5q35 -37 69 -73t65 -71q14 -16 13 -35.5t-18 -31.5l-186 -164q-16 -14 -37 -13t-35 15 l-110 112q-16 16 -36 16.5t-36 -14.5q-49 -43 -97 -67.5t-93 -38.5t-85 -18.5t-73 -4.5q-203 0 -330 104.5t-147 278.5zM385 401q8 -47 37 -71.5t65.5 -29.5t76.5 6t71 34q16 12 15 33.5t-15 38.5l-119 123q-14 16 -37 19t-39 -9q-27 -16 -46 -50t-9 -94zM532 1133 q-4 -23 2.5 -49.5t16.5 -51.5q8 -18 29.5 -24t37.5 6q37 25 52.5 59.5t13.5 66t-21.5 53t-52.5 21.5q-25 0 -48 -19t-30 -62z" />
<glyph unicode="'" horiz-adv-x="471" d="M23 1468q-2 20 11 35t34 15h309q20 0 33.5 -14.5t11.5 -35.5l-33 -452q-2 -20 -17.5 -34.5t-35.5 -14.5h-225q-20 0 -36 14t-18 35z" />
<glyph unicode="(" horiz-adv-x="808" d="M31 750q0 170 30.5 308t91 255t151.5 217t212 192q16 12 36.5 9.5t33.5 -19.5l172 -225q12 -16 9 -36.5t-19 -33.5q-150 -121 -231 -288.5t-81 -378.5q0 -223 76 -382t236 -280q16 -12 19 -32.5t-9 -37.5l-172 -229q-12 -16 -33 -19t-37 9q-115 86 -205 182t-152.5 212 t-95 257t-32.5 320z" />
<glyph unicode=")" horiz-adv-x="808" d="M48 55q3 21 20 33q160 121 236.5 279.5t76.5 382.5q0 211 -82 378.5t-231 288.5q-16 12 -19.5 32.5t8.5 37.5l172 225q12 16 33 19t37 -9q121 -92 212 -192t152.5 -217t92 -255t30.5 -308q0 -178 -32.5 -319.5t-95 -257.5t-153.5 -212t-206 -182q-16 -12 -36.5 -9 t-33.5 19l-172 229q-12 16 -9 37z" />
<glyph unicode="*" horiz-adv-x="890" d="M0 1118l70 207q6 18 23.5 26.5t37.5 0.5l100 -47q18 -8 30.5 0t10.5 28l-8 113q-2 23 11.5 36t35.5 13h221q20 0 34 -13.5t12 -35.5l-11 -123q-2 -20 10.5 -28.5t30.5 1.5l103 54q18 10 35.5 1.5t23.5 -26.5l68 -207q6 -18 -3.5 -35.5t-29.5 -21.5l-115 -29 q-20 -4 -24 -17.5t10 -29.5l86 -94q14 -16 12 -33.5t-20 -30.5l-191 -125q-16 -10 -35.5 -5t-29.5 22l-56 98q-10 18 -23.5 18t-23.5 -18l-53 -96q-10 -18 -28.5 -23.5t-37.5 4.5l-190 125q-16 12 -19.5 29.5t11.5 34.5l88 96q14 16 10 29.5t-24 17.5l-119 27 q-20 4 -29.5 21.5t-3.5 35.5z" />
<glyph unicode="+" horiz-adv-x="1161" d="M37 627v276q0 23 14.5 36t36.5 13h240q23 0 36 14.5t13 34.5v248q0 23 14.5 36t34.5 13h289q23 0 36 -13t13 -36v-248q0 -20 14.5 -34.5t34.5 -14.5h242q23 0 36 -13t13 -36v-276q0 -20 -13 -34.5t-36 -14.5h-242q-20 0 -34.5 -13.5t-14.5 -36.5v-245q0 -20 -13.5 -35 t-35.5 -15h-289q-20 0 -34.5 14.5t-14.5 35.5v245q0 23 -13.5 36.5t-35.5 13.5h-240q-23 0 -37 14t-14 35z" />
<glyph unicode="," horiz-adv-x="487" d="M27 184q-2 43 12 83t42 70t65.5 47t80.5 19q80 4 138.5 -43t76.5 -124q6 -18 8.5 -40t2.5 -44q0 -55 -20.5 -111.5t-58.5 -106t-95.5 -89t-131.5 -62.5q-18 -8 -37.5 2t-27.5 29l-45 106q-10 18 -2 36.5t26 27.5q8 4 14.5 6t12.5 4q37 16 4 45q-59 51 -65 145z" />
<glyph unicode="-" horiz-adv-x="837" d="M43 631v276q0 23 14.5 36t34.5 13h653q20 0 35 -13t15 -36v-276q0 -20 -15 -34.5t-35 -14.5h-653q-20 0 -34.5 14t-14.5 35z" />
<glyph unicode="." horiz-adv-x="475" d="M23 197q0 43 16 79.5t45 65.5t66.5 45t80.5 16t82 -16t68 -45t45 -65.5t16 -79.5t-16 -82t-45 -68t-68 -45t-82 -16t-80.5 16t-66.5 45t-45 68t-16 82z" />
<glyph unicode="/" horiz-adv-x="1161" d="M-53 -209l850 1854q10 18 29.5 30.5t39.5 12.5h303q20 0 29.5 -12.5t-0.5 -30.5l-850 -1854q-8 -18 -28.5 -31.5t-40.5 -13.5h-304q-20 0 -28 13.5t0 31.5z" />
<glyph unicode="0" horiz-adv-x="1529" d="M47 748q0 172 49 314t139.5 244.5t214 159t275.5 56.5q147 0 271 -58.5t214 -162t141.5 -245t51.5 -308.5q0 -154 -46 -291.5t-132 -241.5q-94 -119 -223.5 -181.5t-276.5 -62.5q-154 0 -283 63.5t-221 180.5q-86 104 -130 241.5t-44 291.5zM457 748q0 -68 16 -136.5 t49 -124t83 -90.5t120 -35q49 0 96 25t85 74t61.5 120.5t23.5 166.5q0 84 -20.5 164.5t-59.5 129.5q-78 90 -186 91q-47 0 -95 -23t-86 -70t-62.5 -119.5t-24.5 -172.5z" />
<glyph unicode="1" horiz-adv-x="909" d="M-26.5 985q-0.5 21 16.5 35l473 448q14 14 38.5 23.5t45.5 9.5h168q20 0 34.5 -14.5t14.5 -34.5v-1403q0 -20 -14.5 -34.5t-34.5 -14.5h-307q-20 0 -35 14.5t-15 34.5v711q0 20 -10 25.5t-24 -9.5q-16 -14 -29.5 -27.5t-26.5 -25.5q-14 -14 -33.5 -14t-33.5 16l-213 225 q-14 14 -14.5 35z" />
<glyph unicode="2" horiz-adv-x="1314" d="M59 1061q25 68 70 148.5t112.5 150.5t159 116t207.5 46q139 0 241.5 -44t170 -115t100.5 -160t33 -177t-21.5 -160.5t-62.5 -137t-99.5 -123t-129.5 -118.5q-20 -18 -30.5 -26t-18 -14.5t-17.5 -14.5t-31 -24q-16 -12 -13 -21.5t24 -9.5h366q20 0 34.5 -14.5t14.5 -34.5 v-279q0 -20 -14 -34.5t-35 -14.5h-985q-20 0 -34.5 14.5t-14.5 34.5v268q0 20 10 44t27 38q111 92 188.5 157t131 110t89 73.5t62.5 51.5q51 43 82 75.5t46 60t19 51t4 48.5q0 68 -44 92.5t-93 24.5q-31 0 -56.5 -19.5t-45 -47t-33.5 -59.5t-22 -56q-6 -18 -23.5 -28.5 t-38.5 -6.5l-297 75q-20 6 -29.5 23.5t-3.5 36.5z" />
<glyph unicode="3" horiz-adv-x="1228" d="M31 418q-6 20 3 36.5t29 20.5l263 60q20 4 35.5 -7.5t21.5 -29.5q6 -23 18.5 -48.5t35 -47t56 -37t80.5 -15.5q70 0 105 36t35 73q0 66 -32 100.5t-77 50t-96 15.5t-88 -4q-20 -2 -33.5 10t-13.5 33v172q0 20 13 33.5t36 13.5q43 -2 107.5 4t121.5 35q31 16 53.5 49 t18.5 76q-10 109 -150 108q-47 0 -79.5 -14.5t-55 -35t-36 -45t-19.5 -44.5q-14 -45 -57 -39l-260 57q-20 4 -29.5 21.5t-3.5 36.5q25 68 65.5 144.5t106 142t156 109.5t212.5 44q150 0 254.5 -43t169 -110.5t93 -150.5t28.5 -163q0 -68 -16.5 -117t-42 -84t-56 -56.5 t-61.5 -33.5q-39 -16 0 -35q31 -14 61.5 -39.5t56 -62.5t42 -85t16.5 -110q0 -23 -3 -54.5t-13 -68t-29.5 -77.5t-50.5 -80q-45 -57 -101.5 -93t-116 -56.5t-119.5 -29t-112 -8.5q-123 0 -215 44t-156.5 111t-105.5 144.5t-65 143.5z" />
<glyph unicode="4" horiz-adv-x="1376" d="M61 348v223q0 20 9.5 45t23.5 41l688 807q12 16 36 26.5t44 10.5h203q23 0 36 -14t13 -35v-727q0 -20 14.5 -34.5t34.5 -14.5h68q23 0 36 -14.5t13 -34.5v-279q0 -20 -13.5 -34.5t-35.5 -14.5h-68q-20 0 -34.5 -14.5t-14.5 -34.5v-201q0 -20 -13.5 -34.5t-35.5 -14.5 h-307q-20 0 -34.5 14.5t-14.5 34.5v201q0 20 -13.5 34.5t-36.5 14.5h-548q-20 0 -35 14.5t-15 34.5zM563 689.5q8 -13.5 31 -13.5h59q23 0 39.5 17.5t16.5 39.5v129q0 23 -9.5 26.5t-23.5 -16.5l-107 -149q-14 -20 -6 -33.5z" />
<glyph unicode="5" horiz-adv-x="1261" d="M17.5 276.5q-1.5 20.5 13.5 36.5l168 179q14 14 31.5 13t33.5 -16q18 -18 46 -40.5t67 -43t86 -34t104 -13.5q98 0 151.5 51.5t53.5 129.5q0 31 -10 61.5t-31.5 57t-58.5 46t-88 23.5q-78 6 -125 -15.5t-84 -52.5q-16 -14 -40 -18t-42 4l-184 72q-20 6 -31.5 25.5 t-7.5 39.5l125 672q4 20 20 33.5t37 13.5h772q20 0 34.5 -14t14.5 -35v-281q0 -20 -14.5 -34.5t-34.5 -14.5h-438q-20 0 -35.5 -12t-20.5 -29q-4 -16 7.5 -26.5t31.5 -5.5q14 2 26.5 2h22.5q256 0 397.5 -143.5t141.5 -403.5q0 -113 -45 -214t-131 -177q-78 -66 -178.5 -103 t-208.5 -37q-98 0 -180 23.5t-150.5 61.5t-125 86.5t-105.5 97.5q-14 14 -15.5 34.5z" />
<glyph unicode="6" horiz-adv-x="1329" d="M43 557q0 72 16.5 140.5t46.5 140.5q14 35 59.5 105.5t106 157.5t127 182t127.5 179q10 16 34 27.5t44 11.5h404q20 0 25 -11t-5 -28l-260 -356q-12 -16 -6 -29.5t26 -17.5q193 -33 303.5 -177.5t112.5 -359.5q0 -74 -12 -133t-33.5 -106t-48.5 -83t-51 -61 q-53 -53 -112.5 -86t-119 -50t-114 -23.5t-92.5 -6.5q-88 0 -169 23.5t-150 65.5t-122 101.5t-84 133.5q-23 55 -38 127t-15 133zM455 520q0 -35 13 -65.5t36.5 -53t55.5 -36t69 -13.5t68.5 13.5t55 36t38 53t14.5 65.5t-14.5 65.5t-38 54.5t-55 37t-68.5 13t-69 -13 t-55.5 -37t-36.5 -54.5t-13 -65.5z" />
<glyph unicode="7" horiz-adv-x="1230" d="M39 1171v281q0 20 13.5 34.5t35.5 14.5h1014q20 0 34.5 -14.5t14.5 -34.5v-250q0 -20 -7 -47t-18 -45l-598 -1067q-10 -16 -30.5 -29.5t-40.5 -13.5h-369q-23 0 -29 13.5t4 29.5l596 1036q10 18 3 30.5t-27 12.5h-547q-23 0 -36 14.5t-13 34.5z" />
<glyph unicode="8" horiz-adv-x="1271" d="M31 477q0 86 35.5 161t93.5 130q16 14 17 33.5t-9 36.5q-35 47 -60.5 107.5t-25.5 119.5q0 98 41 181t111.5 144.5t165 95.5t202.5 34q106 0 201.5 -34t166 -95.5t111.5 -144.5t41 -181q0 -66 -21.5 -125t-56.5 -106q-26 -35 5 -70q55 -55 90 -130t35 -157 q0 -129 -45.5 -223t-123 -156.5t-181 -93.5t-222.5 -31q-117 0 -221.5 31t-182 93.5t-122.5 156.5t-45 223zM440 477q0 -74 48.5 -106.5t113.5 -32.5q66 0 115 32.5t49 106.5q0 29 -13.5 54.5t-36 44t-52 29.5t-62.5 11q-66 0 -114 -39.5t-48 -99.5zM489 1038 q0 -43 33 -71.5t80 -28.5t80 28.5t33 71.5q0 57 -33 86t-80 29t-80 -29.5t-33 -85.5z" />
<glyph unicode="9" horiz-adv-x="1345" d="M68 979q0 145 46 238.5t99 144.5q51 53 111.5 86t120 50.5t112.5 23.5t92 6q131 0 237.5 -46t182.5 -126t118 -186.5t42 -225.5q0 -125 -46 -240.5t-117 -226t-156 -218t-165 -218.5q-12 -16 -34.5 -28.5t-42.5 -12.5h-404q-20 0 -26.5 12.5t6.5 28.5l260 356 q12 16 5.5 29.5t-26.5 17.5q-96 18 -173 69.5t-130 124.5t-82.5 161t-29.5 180zM469 981q0 -35 13.5 -66.5t37 -54t55 -36t68.5 -13.5t68.5 13.5t55.5 36t38 54t14 66.5q0 90 -52 131t-124 41t-123 -42t-51 -130z" />
<glyph unicode=":" horiz-adv-x="487" d="M29 197q0 43 16 79.5t44 65.5t67 45t82 16t81.5 -16t67.5 -45t45.5 -65.5t16.5 -79.5t-16.5 -82t-45.5 -68t-67.5 -45t-81.5 -16t-82 16t-67 45t-44 68t-16 82zM29 717q0 43 16 82t44 67.5t67 45t82 16.5t81.5 -16.5t67.5 -45t45.5 -67.5t16.5 -82t-16.5 -81t-45.5 -66.5 t-67.5 -45t-81.5 -16.5t-82 16.5t-67 45t-44 66.5t-16 81z" />
<glyph unicode=";" horiz-adv-x="505" d="M35 184q-4 88 55.5 148.5t145.5 64.5q51 2 94 -17.5t72.5 -53t46 -78.5t16.5 -96q0 -135 -75.5 -241t-229.5 -169q-20 -8 -42 -1t-34 23l-37 54q-12 16 -9 36.5t17 34.5q23 20 41.5 41t32.5 41q12 16 5 32.5t-23 29.5q-35 23 -53.5 63.5t-22.5 87.5zM35 717q0 43 16.5 82 t44 67.5t66.5 45t82 16.5t82 -16.5t67.5 -45t45 -67.5t16.5 -82t-16.5 -81t-45 -66.5t-67.5 -45t-82 -16.5t-82 16.5t-66.5 45t-44 66.5t-16.5 81z" />
<glyph unicode="&#x3c;" horiz-adv-x="1132" d="M51 629v231q0 20 12.5 41t30.5 29l883 413q18 10 31.5 1t13.5 -29v-330q0 -20 -13.5 -39.5t-31.5 -27.5l-354 -154q-20 -10 -20.5 -20.5t20.5 -18.5l352 -152q20 -10 33.5 -29.5t13.5 -39.5v-332q0 -20 -13.5 -28.5t-31.5 -0.5l-883 416q-18 10 -30.5 29.5t-12.5 40.5z " />
<glyph unicode="=" horiz-adv-x="1150" d="M49 383v256q0 23 14.5 36t34.5 13h889q20 0 34.5 -13t14.5 -36v-256q0 -20 -14.5 -34.5t-34.5 -14.5h-889q-20 0 -34.5 14t-14.5 35zM49 850v256q0 23 14.5 36t34.5 13h889q20 0 34.5 -13.5t14.5 -35.5v-256q0 -20 -14.5 -34.5t-34.5 -14.5h-889q-20 0 -34.5 14t-14.5 35 z" />
<glyph unicode="&#x3e;" horiz-adv-x="1132" d="M51 172v332q0 20 13.5 39.5t31.5 29.5l353 152q18 8 18 18.5t-18 20.5l-353 154q-18 8 -31.5 27.5t-13.5 39.5v330q0 20 13.5 29.5t31.5 -1.5l881 -413q18 -8 31.5 -29t13.5 -41v-231q0 -20 -13.5 -40t-31.5 -30l-881 -416q-18 -8 -31.5 0.5t-13.5 28.5z" />
<glyph unicode="?" horiz-adv-x="1183" d="M-27 1087q14 55 43 131t92.5 147t170 120t276.5 49q86 0 152.5 -14.5t119 -38t89 -52t61.5 -55.5q57 -63 89 -131.5t32 -152.5q0 -109 -27 -174.5t-66.5 -105.5t-89 -63.5t-93.5 -46t-78 -53.5t-44 -84q-4 -20 -17 -34.5t-36 -14.5h-311q-20 0 -34.5 14.5t-14.5 34.5 q2 72 22.5 127t56 99.5t89 79t125.5 65.5q66 29 90 53.5t24 71.5q0 4 -1 19.5t-13 31.5t-42 29.5t-87 13.5q-66 0 -108 -15.5t-69.5 -40t-43 -56t-27.5 -62.5q-8 -18 -26.5 -27.5t-38.5 -3.5l-232 76q-18 8 -28.5 25.5t-4.5 37.5zM289 49v283q0 20 14 34.5t35 14.5h307 q23 0 36 -14.5t13 -34.5v-283q0 -20 -13 -34.5t-36 -14.5h-307q-20 0 -34.5 14.5t-14.5 34.5z" />
<glyph unicode="@" horiz-adv-x="1734" d="M70 756q0 154 51 291t147 241q106 117 252 177.5t322 60.5q180 0 323.5 -43t245.5 -131q219 -184 219 -527q0 -348 -168 -473q-41 -29 -88 -40t-95 -7t-93 20.5t-78 45.5q-16 14 -36.5 15t-37.5 -9q-43 -33 -98 -54.5t-121 -21.5q-190 0 -298.5 118t-108.5 320 q0 98 29.5 178t83.5 137.5t129 89.5t167 32q68 0 111 -15q45 -14 45 -6q0 6 14 9t35 3h160q23 0 36 -13t13 -36v-471q0 -16 2 -35.5t8 -36.5q6 -20 34 -27t42 7q29 27 43 96.5t14 173.5q0 229 -129 338q-68 55 -168 86t-235 31q-133 0 -230.5 -46t-161 -120t-93 -168 t-29.5 -190q0 -90 18.5 -187.5t70.5 -179.5t145 -134t243 -52q123 0 200.5 22.5t116.5 44.5q16 10 38 8t34 -16l92 -104q14 -16 13 -36t-17 -34q-29 -23 -70 -43t-97 -36.5t-133 -26t-177 -9.5q-172 0 -308.5 53.5t-231.5 155t-145 245.5t-50 329zM676 739q0 -59 13 -97 t33.5 -60.5t45.5 -31.5t47 -9q31 0 58.5 7t49 25.5t36 49t14.5 77.5v93q0 25 -5 50t-21.5 47.5t-47.5 37t-82 14.5q-43 0 -70.5 -20.5t-43 -51t-21.5 -65.5t-6 -66z" />
<glyph unicode="A" d="M-47 37v5q0 10 6 24l594 1386q8 18 27.5 31.5t42.5 13.5h286q20 0 40 -13.5t28 -31.5l598 -1393q3 -8 3 -16q0 -11 -6 -23q-11 -20 -44 -20h-350q-23 0 -42.5 13.5t-29.5 31.5l-55 123q-10 18 -30 31.5t-40 13.5h-432q-23 0 -42.5 -13.5t-27.5 -31.5l-57 -123 q-8 -18 -27.5 -31.5t-40.5 -13.5h-352q-10 0 -21.5 4t-18.5 12.5t-9 20.5zM643 574q8 -14 31 -13h182q20 -1 30 13q5 7 4 15q0 8 -5 17q-20 51 -49 120t-54 128q-8 18 -18 18t-19 -18l-102 -248q-4 -9 -4 -17t4 -15z" />
<glyph unicode="B" horiz-adv-x="1435" d="M111 49v1401q0 20 14 34.5t35 14.5h618q98 0 188.5 -21.5t159 -70.5t110.5 -128t42 -194q0 -92 -46 -159.5t-99 -106.5q-37 -27 4 -47q33 -18 65.5 -45t60 -65.5t45 -90t17.5 -116.5q0 -133 -42 -220.5t-113.5 -139.5t-165 -73.5t-195.5 -21.5h-649q-20 0 -34.5 14.5 t-14.5 34.5zM516 426q0 -20 14.5 -34.5t34.5 -14.5h230q37 0 69.5 30.5t32.5 71.5q0 37 -32 75t-85 38h-215q-20 0 -34.5 -14.5t-14.5 -34.5v-117zM516 979q0 -20 14.5 -34.5t34.5 -14.5h191q41 0 65.5 31.5t24.5 70.5q0 37 -30 63.5t-56 26.5h-195q-20 0 -34.5 -14 t-14.5 -35v-94z" />
<glyph unicode="C" horiz-adv-x="1601" d="M41 748q0 160 61.5 301t169 245.5t251 166t306.5 61.5q135 0 244 -31t197 -86t158.5 -134t130.5 -173q6 -10 6 -20q-1 -7 -3 -15q-6 -19 -24 -27l-291 -114q-20 -8 -40.5 0t-30.5 24q-59 94 -143.5 144.5t-203.5 50.5q-78 0 -146.5 -33t-119.5 -87t-79.5 -126t-28.5 -147 q0 -78 28.5 -149t79.5 -124t120 -86t146 -33q113 0 204 54.5t145 140.5q10 16 29.5 24.5t39.5 -0.5l291 -114q18 -8 24 -26q3 -7 3 -14q0 -11 -6 -22q-59 -96 -131 -175t-161 -134t-197.5 -86t-240.5 -31q-164 0 -307 61.5t-250.5 166t-169 246t-61.5 301.5z" />
<glyph unicode="D" horiz-adv-x="1609" d="M115 49v1401q0 20 14 34.5t35 14.5h559q322 0 526 -188q111 -102 168.5 -243.5t57.5 -317.5t-57.5 -318.5t-168.5 -245.5q-102 -92 -234 -139t-292 -47h-559q-20 0 -34.5 14.5t-14.5 34.5zM520 426q0 -20 14.5 -34.5t34.5 -14.5h154q57 0 118.5 14.5t110.5 54t81 112.5 t32 190t-32 189.5t-82 112.5t-110.5 54t-117.5 14h-154q-20 0 -34.5 -14t-14.5 -35v-643z" />
<glyph unicode="E" horiz-adv-x="1398" d="M109 49v1401q0 20 14 34.5t35 14.5h1042q20 0 34.5 -14.5t14.5 -34.5v-279q0 -20 -14 -34.5t-35 -14.5h-637q-20 0 -34.5 -14.5t-14.5 -34.5v-86q0 -20 14.5 -34.5t34.5 -14.5h555q20 0 34.5 -14.5t14.5 -34.5v-283q0 -20 -14 -34.5t-35 -14.5h-555q-20 0 -34.5 -14.5 t-14.5 -34.5v-78q0 -20 14.5 -34.5t34.5 -14.5h637q20 0 34.5 -14.5t14.5 -34.5v-283q0 -20 -14 -34.5t-35 -14.5h-1042q-20 0 -34.5 14.5t-14.5 34.5z" />
<glyph unicode="F" horiz-adv-x="1335" d="M109 49v1401q0 20 14 34.5t35 14.5h1042q20 0 34.5 -14.5t14.5 -34.5v-281q0 -20 -14 -34.5t-35 -14.5h-635q-20 0 -34.5 -14.5t-14.5 -34.5v-86q0 -20 14.5 -34.5t34.5 -14.5h553q20 0 34.5 -14.5t14.5 -34.5v-287q0 -20 -14 -34.5t-35 -14.5h-553q-20 0 -34.5 -14.5 t-14.5 -34.5v-453q0 -20 -14.5 -34.5t-34.5 -14.5h-309q-20 0 -34.5 14.5t-14.5 34.5z" />
<glyph unicode="G" horiz-adv-x="1724" d="M41 748q0 160 62.5 301t170 246.5t251 167t306.5 61.5q225 0 392.5 -92.5t271.5 -253.5q10 -16 5 -38t-21 -32l-246 -158q-16 -10 -36.5 -7t-35.5 20q-63 78 -142 125t-188 47q-78 0 -146.5 -32t-119.5 -85t-80.5 -124t-29.5 -146q0 -78 29.5 -148t80.5 -122t120 -84 t146 -32q78 0 154 29t121 94q10 16 2 29.5t-29 13.5h-235q-20 0 -34.5 14.5t-14.5 35.5v243q0 20 14 34.5t35 14.5h704q20 0 35.5 -13t18.5 -36q4 -35 4 -85t-7 -103q-14 -141 -79.5 -262t-169 -209t-236.5 -138.5t-283 -50.5q-164 0 -307 61.5t-250.5 166t-170 246 t-62.5 301.5z" />
<glyph unicode="H" horiz-adv-x="1638" d="M117 49v1401q0 20 13 34.5t36 14.5h305q20 0 34.5 -14.5t14.5 -34.5v-485q0 -20 13.5 -35t35.5 -15h422q20 0 34.5 14.5t14.5 35.5v485q0 20 13.5 34.5t36.5 14.5h307q20 0 34.5 -14.5t14.5 -34.5v-1401q0 -20 -14.5 -34.5t-34.5 -14.5h-307q-23 0 -36.5 14.5t-13.5 34.5 v438q0 20 -14 35t-35 15h-422q-23 0 -36 -14.5t-13 -35.5v-438q0 -20 -14 -34.5t-35 -14.5h-305q-23 0 -36 14.5t-13 34.5z" />
<glyph unicode="I" horiz-adv-x="696" d="M127 49v1399q0 20 13.5 34.5t35.5 14.5h309q20 0 35 -14.5t15 -34.5v-1399q0 -20 -15 -34.5t-35 -14.5h-309q-23 0 -36 14.5t-13 34.5z" />
<glyph unicode="J" horiz-adv-x="1247" d="M-10 355q8 20 26 30l232 119q18 10 37.5 3t29.5 -24q31 -49 80 -88t113 -39q55 0 88 23.5t50.5 57.5t23.5 72t6 66v873q0 20 14.5 34.5t34.5 14.5h307q23 0 36 -14.5t13 -34.5v-873q0 -135 -42 -245.5t-116.5 -190.5t-180 -123t-234.5 -43q-172 0 -305 91.5t-211 252.5 q-6 10 -6 21q0 8 4 17z" />
<glyph unicode="K" horiz-adv-x="1505" d="M117 49v1401q0 20 13 34.5t36 14.5h307q20 0 34.5 -14.5t14.5 -34.5v-471q0 -20 8.5 -23.5t20.5 13.5l369 489q12 16 34.5 27.5t44.5 11.5h392q23 0 28.5 -19.5t-6.5 -35.5l-539 -674q-12 -16 -11 -37.5t16 -36.5q70 -76 147.5 -157.5t154 -164.5t151.5 -164t143 -151 q11 -12 11 -28q0 -5 -1 -9q-4 -20 -27 -20h-424q-23 0 -46.5 10.5t-35.5 26.5l-397 444q-14 16 -23.5 12t-9.5 -24v-420q0 -20 -14 -34.5t-35 -14.5h-307q-23 0 -36 14.5t-13 34.5z" />
<glyph unicode="L" horiz-adv-x="1259" d="M109 49v1401q0 20 13 34.5t36 14.5h307q20 0 34.5 -14.5t14.5 -34.5v-1024q0 -20 13.5 -34.5t35.5 -14.5h617q20 0 34.5 -14.5t14.5 -34.5v-279q0 -20 -14.5 -34.5t-34.5 -14.5h-1022q-23 0 -36 14.5t-13 34.5z" />
<glyph unicode="M" horiz-adv-x="1996" d="M117 49v1399q0 20 14 34.5t35 14.5h287q20 0 42.5 -12t32.5 -29l394 -577q12 -16 28.5 -16.5t26.5 16.5l393 577q12 16 34.5 28.5t43.5 12.5h287q20 0 34.5 -14.5t14.5 -34.5v-1399q0 -20 -14.5 -34.5t-34.5 -14.5h-310q-20 0 -34.5 14.5t-14.5 34.5v660q0 20 -18.5 22 t-30.5 -14l-344 -555q-10 -16 -32.5 -16.5t-35.5 16.5l-344 555q-10 16 -28.5 14t-18.5 -22v-660q0 -20 -14 -34.5t-35 -14.5h-309q-20 0 -34.5 14.5t-14.5 34.5z" />
<glyph unicode="N" horiz-adv-x="1716" d="M113 49v1401q0 20 14 34.5t35 14.5h307q20 0 43 -11t35 -28l532 -751q12 -16 25.5 -14.5t13.5 22.5v733q0 20 14.5 34.5t34.5 14.5h303q20 0 35 -14.5t15 -34.5v-1401q0 -20 -14.5 -34.5t-35.5 -14.5h-303q-20 0 -42.5 12.5t-34.5 28.5l-535 752q-12 16 -25.5 13 t-13.5 -24v-733q0 -20 -14.5 -34.5t-34.5 -14.5h-305q-20 0 -34.5 14.5t-14.5 34.5z" />
<glyph unicode="O" horiz-adv-x="1695" d="M45 750q0 160 61.5 301t166 246.5t245.5 167t301 61.5t301.5 -61.5t247 -167t166.5 -247t61 -300.5q0 -160 -61 -301.5t-166.5 -247t-247 -167t-301.5 -61.5t-301 61.5t-245.5 167t-166 247t-61.5 301.5zM451 750q0 -78 28.5 -148t78.5 -123t117.5 -85t143.5 -32 t143.5 32t119 85t80 123t28.5 148q0 76 -28.5 146.5t-80 122.5t-119 84t-143.5 32t-143.5 -32t-117.5 -84t-78.5 -122.5t-28.5 -146.5z" />
<glyph unicode="P" horiz-adv-x="1388" d="M109 49v1401q0 20 14 34.5t35 14.5h626q115 0 216.5 -43t176 -118.5t118.5 -176t44 -215.5t-36.5 -214t-111.5 -172t-186.5 -115t-261.5 -42h-178q-20 0 -34.5 -14t-14.5 -35v-305q0 -20 -14.5 -34.5t-34.5 -14.5h-309q-20 0 -34.5 14.5t-14.5 34.5zM516 831 q0 -20 14.5 -34.5t34.5 -14.5h219q78 0 114 50.5t36 113.5q0 33 -11.5 64.5t-34 56.5t-55 40t-75.5 15h-193q-20 0 -34.5 -14t-14.5 -35v-242z" />
<glyph unicode="Q" horiz-adv-x="1693" d="M49 760q0 158 59.5 297t163 242.5t241.5 164t296 60.5t297 -60.5t242.5 -164t163 -242.5t59.5 -297q0 -98 -35 -187.5t-88 -150.5q-27 -37 16 -37h97q20 0 34.5 -14.5t14.5 -34.5v-289q0 -20 -14.5 -34.5t-34.5 -14.5h-707q-207 0 -358.5 60.5t-251 164t-147.5 241.5 t-48 296zM453 760q0 -74 27.5 -139.5t76.5 -114.5t113.5 -79t138.5 -30t138.5 30t113.5 79t76.5 114.5t27.5 139.5t-27.5 140.5t-76.5 116.5t-113.5 78.5t-138.5 28.5t-138.5 -28.5t-113.5 -78.5t-76.5 -116.5t-27.5 -140.5z" />
<glyph unicode="R" horiz-adv-x="1474" d="M113 49v1401q0 20 14 34.5t35 14.5h637q119 0 219 -40t171 -111.5t110.5 -170t39.5 -216.5q0 -66 -15 -130.5t-44 -122t-67.5 -103.5t-88.5 -77q-16 -12 -21 -29.5t7 -33.5q78 -102 164 -211t153 -199q8 -11 8 -23q0 -6 -2 -12q-6 -20 -26 -20h-381q-20 0 -44 11.5 t-36 27.5q-66 86 -130 174t-128 178q-12 16 -34.5 27.5t-43.5 11.5h-45q-20 0 -34.5 -14.5t-14.5 -34.5v-332q0 -20 -14.5 -34.5t-34.5 -14.5h-305q-20 0 -34.5 14.5t-14.5 34.5zM516 856q0 -20 14.5 -34.5t34.5 -14.5h217q25 0 51.5 9t49 28.5t37 48.5t14.5 68 q0 20 -7 47.5t-24.5 53t-47.5 43t-73 17.5h-217q-20 0 -34.5 -14t-14.5 -35v-217z" />
<glyph unicode="S" horiz-adv-x="1392" d="M43 234v7q0 18 10 31l158 228q12 16 33 20t37 -6q111 -72 219 -113t202 -41q90 0 137.5 26t47.5 77q0 27 -20.5 42t-54.5 25.5t-79 16.5t-92 16q-45 8 -105.5 19.5t-124 33t-126 54t-111.5 84t-78.5 122t-29.5 166.5q0 141 55 233.5t140 147t189.5 76t202.5 21.5 q172 0 308.5 -50.5t261.5 -146.5q16 -14 18 -34.5t-10 -37.5l-160 -227q-12 -16 -32.5 -20.5t-37.5 8.5q-104 66 -194 93.5t-166 27.5q-23 0 -52.5 -1.5t-56 -8.5t-44 -23.5t-17.5 -44.5q0 -29 43 -51.5t98.5 -39t106.5 -25.5t65 -11q74 -14 162 -42t165 -82t129 -141.5 t52 -218.5q0 -123 -43 -212t-119.5 -146t-184 -85t-238.5 -28q-106 0 -198.5 17.5t-172.5 48.5t-148.5 73t-126.5 89q-16 11 -18 33z" />
<glyph unicode="T" horiz-adv-x="1273" d="M47 1171v279q0 20 14.5 34.5t34.5 14.5h1082q23 0 36 -14.5t13 -34.5v-279q0 -20 -13 -34.5t-36 -14.5h-287q-20 0 -34.5 -14t-14.5 -35v-1024q0 -20 -13.5 -34.5t-35.5 -14.5h-308q-20 0 -34.5 14.5t-14.5 34.5v1024q0 20 -13 34.5t-36 14.5h-291q-20 0 -34.5 14.5 t-14.5 34.5z" />
<glyph unicode="U" horiz-adv-x="1613" d="M111 618v830q0 20 14 34.5t35 14.5h309q20 0 34.5 -14.5t14.5 -34.5v-830q0 -80 25.5 -132t63.5 -81.5t81 -42t78 -12.5t78 12.5t80 42t62.5 82t25.5 131.5v830q0 20 14 34.5t35 14.5h309q20 0 34.5 -14.5t14.5 -34.5v-830q0 -145 -46 -263.5t-132 -202.5t-207 -130.5 t-268 -46.5t-268 46.5t-207 130.5t-133 202.5t-47 263.5z" />
<glyph unicode="V" horiz-adv-x="1699" d="M-9 1481q9 18 36 18h333q20 0 40 -13t30 -32l361 -823q10 -18 26.5 -18.5t26.5 18.5l358 823q10 18 29.5 31.5t40.5 13.5h340q23 1 33 -17q6 -10 6 -19q0 -7 -4 -15l-625 -1403q-10 -18 -29.5 -31.5t-40.5 -13.5h-272q-20 0 -40 13.5t-30 31.5l-618 1395q-5 12 -5 23 q0 9 4 18z" />
<glyph unicode="W" horiz-adv-x="2338" d="M1 1482q9 17 32 17h334q20 0 38.5 -13t24.5 -32l234 -682q6 -20 21 -20t22 20l225 680q6 20 24.5 33.5t40.5 13.5h273q23 0 41 -13t24 -34l226 -684q6 -20 21 -20t24 20l235 686q8 18 26.5 31.5t41.5 13.5h332q23 1 31 -17q4 -10 4 -20q0 -8 -3 -16l-495 -1399 q-8 -20 -26.5 -33.5t-41.5 -13.5h-264q-23 0 -41.5 13.5t-24.5 33.5l-225 682q-6 20 -21.5 20.5t-21.5 -20.5l-225 -682q-6 -20 -24.5 -33.5t-41.5 -13.5h-264q-23 0 -41 15.5t-22 31.5l-492 1393q-5 13 -5 24q0 10 4 18z" />
<glyph unicode="X" horiz-adv-x="1544" d="M-37 1476q6 20 27 21h393q20 0 43 -12t35 -29l256 -375q12 -16 28.5 -16t28.5 16q66 92 130.5 189.5t125.5 187.5q12 16 34.5 27.5t43.5 11.5h391q25 -1 29 -21q1 -5 1 -9q0 -15 -9 -27l-510 -660q-12 -16 -13 -38.5t13 -39.5l499 -643q12 -16 5 -37.5t-27 -21.5h-389 q-20 0 -43 12.5t-35 28.5l-246 358q-12 16 -28.5 16.5t-28.5 -16.5l-246 -358q-12 -16 -34.5 -28.5t-43.5 -12.5h-389q-20 0 -26.5 21.5t6.5 37.5l499 643q12 16 12 39t-12 39l-514 660q-8 11 -8 23q0 6 2 13z" />
<glyph unicode="Y" horiz-adv-x="1452" d="M-47 1478q6 19 27 19h364q20 0 42 -12t32 -31l252 -438q10 -16 24.5 -16.5t24.5 16.5l250 438q10 18 31.5 30.5t41.5 12.5h369q20 0 29 -14q4 -5 4 -13q0 -12 -10 -30l-512 -830q-10 -18 -18.5 -44.5t-8.5 -47.5v-469q0 -20 -14.5 -34.5t-34.5 -14.5h-309q-20 0 -35 14.5 t-15 34.5v467q0 20 -7 48t-17 44q-123 211 -251 414t-255 418q-6 11 -6 23q0 7 2 15z" />
<glyph unicode="Z" horiz-adv-x="1452" d="M80 49v230q0 20 10 44.5t23 41.5l626 702q12 16 8 34.5t-26 18.5h-592q-20 0 -34.5 14.5t-14.5 34.5v281q0 20 14.5 34.5t34.5 14.5h1159q23 0 36 -14.5t13 -34.5v-231q0 -20 -9 -45t-21 -41l-627 -705q-12 -16 -8 -33.5t24 -17.5h592q23 0 36 -14.5t13 -34.5v-279 q0 -20 -13 -34.5t-36 -14.5h-1159q-20 0 -34.5 14.5t-14.5 34.5z" />
<glyph unicode="[" horiz-adv-x="798" d="M121 -242v2001q0 23 14.5 36t34.5 13h551q20 0 34.5 -13t14.5 -36v-280q0 -20 -14.5 -34.5t-34.5 -14.5h-146q-20 0 -34.5 -13.5t-14.5 -36.5v-1245q0 -20 14.5 -34.5t34.5 -14.5h146q20 0 34.5 -13.5t14.5 -35.5v-279q0 -20 -14.5 -34.5t-34.5 -14.5h-551 q-20 0 -34.5 14.5t-14.5 34.5z" />
<glyph unicode="\" horiz-adv-x="1009" d="M-63 1642q-8 18 1 32t29 14h305q20 0 40 -13.5t28 -32.5l686 -1849q6 -18 -3 -32.5t-30 -14.5h-307q-20 0 -39.5 14.5t-25.5 32.5z" />
<glyph unicode="]" horiz-adv-x="751" d="M29 37q0 23 14 36t35 13h143q20 0 34.5 14.5t14.5 34.5v1245q0 23 -14 36.5t-35 13.5h-143q-20 0 -34.5 14t-14.5 35v280q0 23 14 36t35 13h549q20 0 34.5 -13t14.5 -36v-2001q0 -20 -14.5 -34.5t-34.5 -14.5h-549q-20 0 -34.5 14.5t-14.5 34.5v279z" />
<glyph unicode="^" horiz-adv-x="1239" d="M32.5 701.5q-7.5 13.5 2.5 31.5l362 735q10 18 29.5 30.5t42.5 12.5h264q20 0 40 -12t30 -31l362 -735q10 -18 2 -31.5t-28 -13.5h-330q-23 0 -42.5 13.5t-27.5 31.5l-121 273q-8 18 -19 18t-19 -18l-121 -273q-8 -18 -27.5 -31.5t-40.5 -13.5h-328q-23 0 -30.5 13.5z " />
<glyph unicode="_" horiz-adv-x="1294" d="M55 98q0 20 14.5 34.5t34.5 14.5h1074q23 0 36 -14t13 -35v-276q0 -20 -13 -34.5t-36 -14.5h-1074q-20 0 -34.5 14t-14.5 35v276z" />
<glyph unicode="`" horiz-adv-x="671" d="M12 1673q-35 29 6 49l295 127q18 8 41 2t35 -22l285 -367q12 -16 6.5 -27.5t-25.5 -11.5h-260q-20 0 -45.5 9.5t-42.5 21.5z" />
<glyph unicode="a" d="M-47 37v5q0 10 6 24l594 1386q8 18 27.5 31.5t42.5 13.5h286q20 0 40 -13.5t28 -31.5l598 -1393q3 -8 3 -16q0 -11 -6 -23q-11 -20 -44 -20h-350q-23 0 -42.5 13.5t-29.5 31.5l-55 123q-10 18 -30 31.5t-40 13.5h-432q-23 0 -42.5 -13.5t-27.5 -31.5l-57 -123 q-8 -18 -27.5 -31.5t-40.5 -13.5h-352q-10 0 -21.5 4t-18.5 12.5t-9 20.5zM643 574q8 -14 31 -13h182q20 -1 30 13q5 7 4 15q0 8 -5 17q-20 51 -49 120t-54 128q-8 18 -18 18t-19 -18l-102 -248q-4 -9 -4 -17t4 -15z" />
<glyph unicode="b" horiz-adv-x="1435" d="M111 49v1401q0 20 14 34.5t35 14.5h618q98 0 188.5 -21.5t159 -70.5t110.5 -128t42 -194q0 -92 -46 -159.5t-99 -106.5q-37 -27 4 -47q33 -18 65.5 -45t60 -65.5t45 -90t17.5 -116.5q0 -133 -42 -220.5t-113.5 -139.5t-165 -73.5t-195.5 -21.5h-649q-20 0 -34.5 14.5 t-14.5 34.5zM516 426q0 -20 14.5 -34.5t34.5 -14.5h230q37 0 69.5 30.5t32.5 71.5q0 37 -32 75t-85 38h-215q-20 0 -34.5 -14.5t-14.5 -34.5v-117zM516 979q0 -20 14.5 -34.5t34.5 -14.5h191q41 0 65.5 31.5t24.5 70.5q0 37 -30 63.5t-56 26.5h-195q-20 0 -34.5 -14 t-14.5 -35v-94z" />
<glyph unicode="c" horiz-adv-x="1601" d="M41 748q0 160 61.5 301t169 245.5t251 166t306.5 61.5q135 0 244 -31t197 -86t158.5 -134t130.5 -173q6 -10 6 -20q-1 -7 -3 -15q-6 -19 -24 -27l-291 -114q-20 -8 -40.5 0t-30.5 24q-59 94 -143.5 144.5t-203.5 50.5q-78 0 -146.5 -33t-119.5 -87t-79.5 -126t-28.5 -147 q0 -78 28.5 -149t79.5 -124t120 -86t146 -33q113 0 204 54.5t145 140.5q10 16 29.5 24.5t39.5 -0.5l291 -114q18 -8 24 -26q3 -7 3 -14q0 -11 -6 -22q-59 -96 -131 -175t-161 -134t-197.5 -86t-240.5 -31q-164 0 -307 61.5t-250.5 166t-169 246t-61.5 301.5z" />
<glyph unicode="d" horiz-adv-x="1609" d="M115 49v1401q0 20 14 34.5t35 14.5h559q322 0 526 -188q111 -102 168.5 -243.5t57.5 -317.5t-57.5 -318.5t-168.5 -245.5q-102 -92 -234 -139t-292 -47h-559q-20 0 -34.5 14.5t-14.5 34.5zM520 426q0 -20 14.5 -34.5t34.5 -14.5h154q57 0 118.5 14.5t110.5 54t81 112.5 t32 190t-32 189.5t-82 112.5t-110.5 54t-117.5 14h-154q-20 0 -34.5 -14t-14.5 -35v-643z" />
<glyph unicode="e" horiz-adv-x="1398" d="M109 49v1401q0 20 14 34.5t35 14.5h1042q20 0 34.5 -14.5t14.5 -34.5v-279q0 -20 -14 -34.5t-35 -14.5h-637q-20 0 -34.5 -14.5t-14.5 -34.5v-86q0 -20 14.5 -34.5t34.5 -14.5h555q20 0 34.5 -14.5t14.5 -34.5v-283q0 -20 -14 -34.5t-35 -14.5h-555q-20 0 -34.5 -14.5 t-14.5 -34.5v-78q0 -20 14.5 -34.5t34.5 -14.5h637q20 0 34.5 -14.5t14.5 -34.5v-283q0 -20 -14 -34.5t-35 -14.5h-1042q-20 0 -34.5 14.5t-14.5 34.5z" />
<glyph unicode="f" horiz-adv-x="1335" d="M109 49v1401q0 20 14 34.5t35 14.5h1042q20 0 34.5 -14.5t14.5 -34.5v-281q0 -20 -14 -34.5t-35 -14.5h-635q-20 0 -34.5 -14.5t-14.5 -34.5v-86q0 -20 14.5 -34.5t34.5 -14.5h553q20 0 34.5 -14.5t14.5 -34.5v-287q0 -20 -14 -34.5t-35 -14.5h-553q-20 0 -34.5 -14.5 t-14.5 -34.5v-453q0 -20 -14.5 -34.5t-34.5 -14.5h-309q-20 0 -34.5 14.5t-14.5 34.5z" />
<glyph unicode="g" horiz-adv-x="1724" d="M41 748q0 160 62.5 301t170 246.5t251 167t306.5 61.5q225 0 392.5 -92.5t271.5 -253.5q10 -16 5 -38t-21 -32l-246 -158q-16 -10 -36.5 -7t-35.5 20q-63 78 -142 125t-188 47q-78 0 -146.5 -32t-119.5 -85t-80.5 -124t-29.5 -146q0 -78 29.5 -148t80.5 -122t120 -84 t146 -32q78 0 154 29t121 94q10 16 2 29.5t-29 13.5h-235q-20 0 -34.5 14.5t-14.5 35.5v243q0 20 14 34.5t35 14.5h704q20 0 35.5 -13t18.5 -36q4 -35 4 -85t-7 -103q-14 -141 -79.5 -262t-169 -209t-236.5 -138.5t-283 -50.5q-164 0 -307 61.5t-250.5 166t-170 246 t-62.5 301.5z" />
<glyph unicode="h" horiz-adv-x="1638" d="M117 49v1401q0 20 13 34.5t36 14.5h305q20 0 34.5 -14.5t14.5 -34.5v-485q0 -20 13.5 -35t35.5 -15h422q20 0 34.5 14.5t14.5 35.5v485q0 20 13.5 34.5t36.5 14.5h307q20 0 34.5 -14.5t14.5 -34.5v-1401q0 -20 -14.5 -34.5t-34.5 -14.5h-307q-23 0 -36.5 14.5t-13.5 34.5 v438q0 20 -14 35t-35 15h-422q-23 0 -36 -14.5t-13 -35.5v-438q0 -20 -14 -34.5t-35 -14.5h-305q-23 0 -36 14.5t-13 34.5z" />
<glyph unicode="i" horiz-adv-x="696" d="M127 49v1399q0 20 13.5 34.5t35.5 14.5h309q20 0 35 -14.5t15 -34.5v-1399q0 -20 -15 -34.5t-35 -14.5h-309q-23 0 -36 14.5t-13 34.5z" />
<glyph unicode="j" horiz-adv-x="1247" d="M-10 355q8 20 26 30l232 119q18 10 37.5 3t29.5 -24q31 -49 80 -88t113 -39q55 0 88 23.5t50.5 57.5t23.5 72t6 66v873q0 20 14.5 34.5t34.5 14.5h307q23 0 36 -14.5t13 -34.5v-873q0 -135 -42 -245.5t-116.5 -190.5t-180 -123t-234.5 -43q-172 0 -305 91.5t-211 252.5 q-6 10 -6 21q0 8 4 17z" />
<glyph unicode="k" horiz-adv-x="1505" d="M117 49v1401q0 20 13 34.5t36 14.5h307q20 0 34.5 -14.5t14.5 -34.5v-471q0 -20 8.5 -23.5t20.5 13.5l369 489q12 16 34.5 27.5t44.5 11.5h392q23 0 28.5 -19.5t-6.5 -35.5l-539 -674q-12 -16 -11 -37.5t16 -36.5q70 -76 147.5 -157.5t154 -164.5t151.5 -164t143 -151 q11 -12 11 -28q0 -5 -1 -9q-4 -20 -27 -20h-424q-23 0 -46.5 10.5t-35.5 26.5l-397 444q-14 16 -23.5 12t-9.5 -24v-420q0 -20 -14 -34.5t-35 -14.5h-307q-23 0 -36 14.5t-13 34.5z" />
<glyph unicode="l" horiz-adv-x="1259" d="M109 49v1401q0 20 13 34.5t36 14.5h307q20 0 34.5 -14.5t14.5 -34.5v-1024q0 -20 13.5 -34.5t35.5 -14.5h617q20 0 34.5 -14.5t14.5 -34.5v-279q0 -20 -14.5 -34.5t-34.5 -14.5h-1022q-23 0 -36 14.5t-13 34.5z" />
<glyph unicode="m" horiz-adv-x="1996" d="M117 49v1399q0 20 14 34.5t35 14.5h287q20 0 42.5 -12t32.5 -29l394 -577q12 -16 28.5 -16.5t26.5 16.5l393 577q12 16 34.5 28.5t43.5 12.5h287q20 0 34.5 -14.5t14.5 -34.5v-1399q0 -20 -14.5 -34.5t-34.5 -14.5h-310q-20 0 -34.5 14.5t-14.5 34.5v660q0 20 -18.5 22 t-30.5 -14l-344 -555q-10 -16 -32.5 -16.5t-35.5 16.5l-344 555q-10 16 -28.5 14t-18.5 -22v-660q0 -20 -14 -34.5t-35 -14.5h-309q-20 0 -34.5 14.5t-14.5 34.5z" />
<glyph unicode="n" horiz-adv-x="1716" d="M113 49v1401q0 20 14 34.5t35 14.5h307q20 0 43 -11t35 -28l532 -751q12 -16 25.5 -14.5t13.5 22.5v733q0 20 14.5 34.5t34.5 14.5h303q20 0 35 -14.5t15 -34.5v-1401q0 -20 -14.5 -34.5t-35.5 -14.5h-303q-20 0 -42.5 12.5t-34.5 28.5l-535 752q-12 16 -25.5 13 t-13.5 -24v-733q0 -20 -14.5 -34.5t-34.5 -14.5h-305q-20 0 -34.5 14.5t-14.5 34.5z" />
<glyph unicode="o" horiz-adv-x="1695" d="M45 750q0 160 61.5 301t166 246.5t245.5 167t301 61.5t301.5 -61.5t247 -167t166.5 -247t61 -300.5q0 -160 -61 -301.5t-166.5 -247t-247 -167t-301.5 -61.5t-301 61.5t-245.5 167t-166 247t-61.5 301.5zM451 750q0 -78 28.5 -148t78.5 -123t117.5 -85t143.5 -32 t143.5 32t119 85t80 123t28.5 148q0 76 -28.5 146.5t-80 122.5t-119 84t-143.5 32t-143.5 -32t-117.5 -84t-78.5 -122.5t-28.5 -146.5z" />
<glyph unicode="p" horiz-adv-x="1388" d="M109 49v1401q0 20 14 34.5t35 14.5h626q115 0 216.5 -43t176 -118.5t118.5 -176t44 -215.5t-36.5 -214t-111.5 -172t-186.5 -115t-261.5 -42h-178q-20 0 -34.5 -14t-14.5 -35v-305q0 -20 -14.5 -34.5t-34.5 -14.5h-309q-20 0 -34.5 14.5t-14.5 34.5zM516 831 q0 -20 14.5 -34.5t34.5 -14.5h219q78 0 114 50.5t36 113.5q0 33 -11.5 64.5t-34 56.5t-55 40t-75.5 15h-193q-20 0 -34.5 -14t-14.5 -35v-242z" />
<glyph unicode="q" horiz-adv-x="1693" d="M49 760q0 158 59.5 297t163 242.5t241.5 164t296 60.5t297 -60.5t242.5 -164t163 -242.5t59.5 -297q0 -98 -35 -187.5t-88 -150.5q-27 -37 16 -37h97q20 0 34.5 -14.5t14.5 -34.5v-289q0 -20 -14.5 -34.5t-34.5 -14.5h-707q-207 0 -358.5 60.5t-251 164t-147.5 241.5 t-48 296zM453 760q0 -74 27.5 -139.5t76.5 -114.5t113.5 -79t138.5 -30t138.5 30t113.5 79t76.5 114.5t27.5 139.5t-27.5 140.5t-76.5 116.5t-113.5 78.5t-138.5 28.5t-138.5 -28.5t-113.5 -78.5t-76.5 -116.5t-27.5 -140.5z" />
<glyph unicode="r" horiz-adv-x="1474" d="M113 49v1401q0 20 14 34.5t35 14.5h637q119 0 219 -40t171 -111.5t110.5 -170t39.5 -216.5q0 -66 -15 -130.5t-44 -122t-67.5 -103.5t-88.5 -77q-16 -12 -21 -29.5t7 -33.5q78 -102 164 -211t153 -199q8 -11 8 -23q0 -6 -2 -12q-6 -20 -26 -20h-381q-20 0 -44 11.5 t-36 27.5q-66 86 -130 174t-128 178q-12 16 -34.5 27.5t-43.5 11.5h-45q-20 0 -34.5 -14.5t-14.5 -34.5v-332q0 -20 -14.5 -34.5t-34.5 -14.5h-305q-20 0 -34.5 14.5t-14.5 34.5zM516 856q0 -20 14.5 -34.5t34.5 -14.5h217q25 0 51.5 9t49 28.5t37 48.5t14.5 68 q0 20 -7 47.5t-24.5 53t-47.5 43t-73 17.5h-217q-20 0 -34.5 -14t-14.5 -35v-217z" />
<glyph unicode="s" horiz-adv-x="1392" d="M43 234v7q0 18 10 31l158 228q12 16 33 20t37 -6q111 -72 219 -113t202 -41q90 0 137.5 26t47.5 77q0 27 -20.5 42t-54.5 25.5t-79 16.5t-92 16q-45 8 -105.5 19.5t-124 33t-126 54t-111.5 84t-78.5 122t-29.5 166.5q0 141 55 233.5t140 147t189.5 76t202.5 21.5 q172 0 308.5 -50.5t261.5 -146.5q16 -14 18 -34.5t-10 -37.5l-160 -227q-12 -16 -32.5 -20.5t-37.5 8.5q-104 66 -194 93.5t-166 27.5q-23 0 -52.5 -1.5t-56 -8.5t-44 -23.5t-17.5 -44.5q0 -29 43 -51.5t98.5 -39t106.5 -25.5t65 -11q74 -14 162 -42t165 -82t129 -141.5 t52 -218.5q0 -123 -43 -212t-119.5 -146t-184 -85t-238.5 -28q-106 0 -198.5 17.5t-172.5 48.5t-148.5 73t-126.5 89q-16 11 -18 33z" />
<glyph unicode="t" horiz-adv-x="1273" d="M47 1171v279q0 20 14.5 34.5t34.5 14.5h1082q23 0 36 -14.5t13 -34.5v-279q0 -20 -13 -34.5t-36 -14.5h-287q-20 0 -34.5 -14t-14.5 -35v-1024q0 -20 -13.5 -34.5t-35.5 -14.5h-308q-20 0 -34.5 14.5t-14.5 34.5v1024q0 20 -13 34.5t-36 14.5h-291q-20 0 -34.5 14.5 t-14.5 34.5z" />
<glyph unicode="u" horiz-adv-x="1613" d="M111 618v830q0 20 14 34.5t35 14.5h309q20 0 34.5 -14.5t14.5 -34.5v-830q0 -80 25.5 -132t63.5 -81.5t81 -42t78 -12.5t78 12.5t80 42t62.5 82t25.5 131.5v830q0 20 14 34.5t35 14.5h309q20 0 34.5 -14.5t14.5 -34.5v-830q0 -145 -46 -263.5t-132 -202.5t-207 -130.5 t-268 -46.5t-268 46.5t-207 130.5t-133 202.5t-47 263.5z" />
<glyph unicode="v" horiz-adv-x="1699" d="M-9 1481q9 18 36 18h333q20 0 40 -13t30 -32l361 -823q10 -18 26.5 -18.5t26.5 18.5l358 823q10 18 29.5 31.5t40.5 13.5h340q23 1 33 -17q6 -10 6 -19q0 -7 -4 -15l-625 -1403q-10 -18 -29.5 -31.5t-40.5 -13.5h-272q-20 0 -40 13.5t-30 31.5l-618 1395q-5 12 -5 23 q0 9 4 18z" />
<glyph unicode="w" horiz-adv-x="2338" d="M1 1482q9 17 32 17h334q20 0 38.5 -13t24.5 -32l234 -682q6 -20 21 -20t22 20l225 680q6 20 24.5 33.5t40.5 13.5h273q23 0 41 -13t24 -34l226 -684q6 -20 21 -20t24 20l235 686q8 18 26.5 31.5t41.5 13.5h332q23 1 31 -17q4 -10 4 -20q0 -8 -3 -16l-495 -1399 q-8 -20 -26.5 -33.5t-41.5 -13.5h-264q-23 0 -41.5 13.5t-24.5 33.5l-225 682q-6 20 -21.5 20.5t-21.5 -20.5l-225 -682q-6 -20 -24.5 -33.5t-41.5 -13.5h-264q-23 0 -41 15.5t-22 31.5l-492 1393q-5 13 -5 24q0 10 4 18z" />
<glyph unicode="x" horiz-adv-x="1544" d="M-37 1476q6 20 27 21h393q20 0 43 -12t35 -29l256 -375q12 -16 28.5 -16t28.5 16q66 92 130.5 189.5t125.5 187.5q12 16 34.5 27.5t43.5 11.5h391q25 -1 29 -21q1 -5 1 -9q0 -15 -9 -27l-510 -660q-12 -16 -13 -38.5t13 -39.5l499 -643q12 -16 5 -37.5t-27 -21.5h-389 q-20 0 -43 12.5t-35 28.5l-246 358q-12 16 -28.5 16.5t-28.5 -16.5l-246 -358q-12 -16 -34.5 -28.5t-43.5 -12.5h-389q-20 0 -26.5 21.5t6.5 37.5l499 643q12 16 12 39t-12 39l-514 660q-8 11 -8 23q0 6 2 13z" />
<glyph unicode="y" horiz-adv-x="1452" d="M-47 1478q6 19 27 19h364q20 0 42 -12t32 -31l252 -438q10 -16 24.5 -16.5t24.5 16.5l250 438q10 18 31.5 30.5t41.5 12.5h369q20 0 29 -14q4 -5 4 -13q0 -12 -10 -30l-512 -830q-10 -18 -18.5 -44.5t-8.5 -47.5v-469q0 -20 -14.5 -34.5t-34.5 -14.5h-309q-20 0 -35 14.5 t-15 34.5v467q0 20 -7 48t-17 44q-123 211 -251 414t-255 418q-6 11 -6 23q0 7 2 15z" />
<glyph unicode="z" horiz-adv-x="1452" d="M80 49v230q0 20 10 44.5t23 41.5l626 702q12 16 8 34.5t-26 18.5h-592q-20 0 -34.5 14.5t-14.5 34.5v281q0 20 14.5 34.5t34.5 14.5h1159q23 0 36 -14.5t13 -34.5v-231q0 -20 -9 -45t-21 -41l-627 -705q-12 -16 -8 -33.5t24 -17.5h592q23 0 36 -14.5t13 -34.5v-279 q0 -20 -13 -34.5t-36 -14.5h-1159q-20 0 -34.5 14.5t-14.5 34.5z" />
<glyph unicode="{" horiz-adv-x="843" d="M37 618v285q0 23 14.5 38t34.5 24q47 16 56.5 61t7.5 121q0 41 2 99.5t12 124t34.5 131t71.5 122.5q59 68 123 108t128.5 61.5t128 29.5t122.5 8q20 0 34.5 -13.5t14.5 -35.5v-297q0 -20 -14 -33.5t-35 -15.5q-76 -2 -122 -20.5t-69.5 -60.5t-29.5 -111.5t-2 -174.5 q0 -31 -5 -71t-14.5 -79.5t-26 -76.5t-36.5 -60q-27 -31 -2 -57q20 -25 35.5 -58.5t25 -72.5t13.5 -78t4 -72q0 -96 8 -163.5t32.5 -111.5t69.5 -66.5t119 -24.5q20 -2 34.5 -15t14.5 -36l-2 -297q0 -20 -14 -34.5t-35 -12.5q-51 2 -114.5 11t-130 32.5t-133 62.5 t-122.5 100q-47 57 -71.5 124t-34.5 137.5t-12 141t-2 136.5q2 55 -5.5 85t-58.5 46q-20 6 -34.5 22.5t-14.5 36.5z" />
<glyph unicode="|" horiz-adv-x="585" d="M111 -147v1789q0 20 14 35t35 15h235q23 0 36 -14.5t13 -35.5v-1789q0 -20 -13 -35t-36 -15h-235q-20 0 -34.5 14.5t-14.5 35.5z" />
<glyph unicode="}" horiz-adv-x="847" d="M23 1485v297q0 23 14 36t35 13q61 0 124.5 -8t128 -29.5t127 -61.5t121.5 -108q45 -57 71 -122.5t36 -131t12 -124t2 -99.5q0 -76 8.5 -121t57.5 -61q18 -8 32.5 -23.5t14.5 -38.5v-285q0 -20 -13.5 -36.5t-33.5 -22.5q-51 -16 -58.5 -46t-7.5 -85q0 -66 -2 -136.5 t-12 -141t-36 -137t-71 -124.5q-55 -61 -120.5 -100t-133 -62.5t-131 -32.5t-114.5 -11q-20 -2 -34.5 12t-14.5 35v297q-2 23 12 36t35 15q74 2 119 24.5t69.5 66.5t32.5 111.5t8 163.5q0 33 4 72t13.5 78t23.5 72.5t37 58.5q27 28 0 57q-23 23 -38 60t-25.5 76.5 t-15.5 79.5t-5 71q2 104 -3 174t-28.5 112t-70 60.5t-121.5 20.5q-20 2 -34.5 15t-14.5 34z" />
<glyph unicode="~" horiz-adv-x="1175" d="M18 760q18 45 47 94t71 89t95.5 65.5t120.5 25.5q76 0 122 -23.5t95 -49.5q66 -35 121 -20t86 54q12 16 30.5 25.5t39.5 3.5l211 -68q20 -6 30.5 -23.5t4.5 -37.5q-16 -47 -47 -97t-74 -92t-100.5 -70t-125.5 -28q-43 0 -73.5 4t-55 10.5t-45 16.5t-45.5 25 q-70 41 -125 34.5t-86 -41.5q-14 -16 -32.5 -24t-38.5 -2l-195 65q-20 8 -29.5 26.5t-1.5 37.5z" />
<glyph unicode="&#xa1;" horiz-adv-x="600" d="M66 49l51 883q2 20 16 34.5t37 14.5h227q20 0 34.5 -14.5t17.5 -34.5l51 -883q2 -20 -11.5 -34.5t-33.5 -14.5h-342q-23 0 -36.5 14.5t-10.5 34.5zM82 1165v283q0 20 13.5 34.5t35.5 14.5h307q20 0 34.5 -14.5t14.5 -34.5v-283q0 -20 -14.5 -34.5t-34.5 -14.5h-307 q-23 0 -36 14.5t-13 34.5z" />
<glyph unicode="&#xa2;" horiz-adv-x="1267" d="M29 745q0 96 27.5 184.5t76.5 162t117.5 132t148.5 95.5q18 10 31.5 28.5t13.5 38.5v89q0 20 14.5 34.5t35.5 14.5h307q23 0 36 -14.5t13 -34.5v-84q0 -20 14.5 -39t32.5 -29q49 -20 98 -50t94.5 -68t81 -84t58.5 -99q10 -18 0 -37.5t-29 -28.5l-274 -110q-20 -8 -39 0 t-29 26q-29 53 -79 88t-124 35q-96 0 -163.5 -67.5t-67.5 -182.5q0 -55 18.5 -100t50 -77.5t73.5 -51t89 -18.5q63 0 115.5 27.5t85.5 84.5q10 18 28 26.5t38 0.5l274 -111q18 -8 27.5 -26.5t1.5 -36.5q-29 -74 -68 -127t-82 -88t-88 -55.5t-88 -30.5q-20 -6 -34.5 -22.5 t-14.5 -37.5v-75q0 -20 -13.5 -35t-35.5 -15h-307q-20 0 -35 14.5t-15 35.5v79q0 20 -13 40t-32 28q-80 37 -148.5 95.5t-117.5 133t-76.5 161.5t-27.5 181z" />
<glyph unicode="&#xa3;" horiz-adv-x="1259" d="M59 49v238q0 23 13.5 42t29.5 29q47 29 78 72t35 98q2 23 -13.5 36.5t-35.5 13.5h-53q-23 0 -36.5 14t-13.5 35v223q0 23 13.5 36t36.5 13h4q20 0 33.5 12.5t11.5 28.5l-4 39q-10 123 19.5 223.5t97 171t171 109.5t240.5 39q117 0 206 -37t154.5 -96.5t108.5 -135 t66 -155.5q4 -20 -6.5 -39t-28.5 -25l-260 -80q-20 -4 -38 5.5t-24 27.5q-27 72 -73 119t-105 47q-53 0 -84 -16.5t-44 -44t-13 -65.5t6 -79q4 -20 20.5 -34.5t38.5 -14.5h303q20 0 35 -13.5t15 -35.5v-223q0 -20 -14.5 -34.5t-35.5 -14.5h-262q-23 0 -36 -13.5t-15 -36.5 q-2 -35 -7 -63.5t-11 -52.5q-6 -20 2 -33.5t30 -13.5h500q20 0 34.5 -13.5t14.5 -36.5v-266q0 -20 -14 -34.5t-35 -14.5h-1005q-23 0 -36.5 14.5t-13.5 34.5z" />
<glyph unicode="&#xa5;" horiz-adv-x="1253" d="M-55 1482.5q8 14.5 28 14.5h371q20 0 41 -13.5t31 -29.5l155 -285q10 -16 23.5 -16t23.5 16l154 285q10 16 31.5 29.5t42.5 13.5h368q23 0 30 -14.5t-3 -32.5l-313 -541q-10 -16 -3 -28.5t27 -12.5h103q20 0 34.5 -14t14.5 -35v-176q0 -20 -14.5 -34.5t-34.5 -14.5h-209 q-20 0 -34.5 -13.5t-14.5 -31.5q0 -20 14 -33.5t35 -13.5h209q20 0 34.5 -13.5t14.5 -35.5v-170q0 -23 -14.5 -36.5t-34.5 -13.5h-209q-20 0 -34.5 -14t-14.5 -35v-135q0 -20 -14.5 -34.5t-34.5 -14.5h-306q-23 0 -36 14.5t-13 34.5v135q0 20 -14 34.5t-35 14.5h-192 q-20 0 -35 13.5t-15 36.5v170q0 23 14.5 36t35.5 13h192q20 0 34.5 13t14.5 34q0 18 -14 31.5t-35 13.5h-192q-20 0 -35 14.5t-15 34.5v176q0 20 14.5 34.5t35.5 14.5h86q20 0 27 12.5t-3 28.5l-315 541q-10 18 -2 32.5z" />
<glyph unicode="&#xa6;" horiz-adv-x="585" d="M111 -147v763q0 23 13 36.5t36 13.5h235q20 0 34.5 -13.5t14.5 -36.5v-763q0 -20 -14 -35t-35 -15h-235q-23 0 -36 15t-13 35zM111 877v765q0 23 13 36.5t36 13.5h235q20 0 34.5 -13.5t14.5 -36.5v-765q0 -20 -14 -35t-35 -15h-235q-23 0 -36 14.5t-13 35.5z" />
<glyph unicode="&#xa7;" horiz-adv-x="1085" d="M53.5 172q-4.5 21 7.5 37l105 149q12 16 32.5 20.5t37.5 -5.5q63 -39 133.5 -71t162.5 -38q20 -2 44 2t44.5 12.5t35 19.5t14.5 28q0 12 -8.5 20t-29 15.5t-56 15.5t-93.5 20q-51 10 -124.5 29.5t-141 58.5t-115 102.5t-47.5 162.5q0 59 24.5 107t59.5 83q31 35 -2 64 q-41 39 -61.5 87t-20.5 99q0 74 25.5 127t65.5 90t88.5 59.5t96.5 34.5t88 16.5t62 4.5q104 0 209 -35t221 -109q16 -10 20.5 -30.5t-7.5 -36.5l-113 -156q-12 -16 -32.5 -19t-37.5 9q-76 53 -139 73.5t-123 20.5q-59 0 -84.5 -13.5t-25.5 -33.5q0 -16 18.5 -27.5t47 -21.5 t63 -17.5t69.5 -13.5q49 -12 120 -31.5t136.5 -58.5t111.5 -103.5t46 -162.5q0 -45 -17.5 -90t-39.5 -80q-12 -16 -12 -39t10 -39q29 -41 45 -91t16 -91q0 -94 -39 -161t-102.5 -110t-143.5 -62.5t-161 -19.5q-72 0 -140.5 17.5t-129 43t-111 55.5t-82.5 52q-16 10 -20.5 31 zM334 817q-16 -37 6.5 -65.5t69.5 -51.5q53 -23 114.5 -32t89.5 -9q33 0 60.5 16.5t25.5 59.5q-2 23 -25.5 44.5t-61.5 38t-83 26.5t-90 10q-41 -2 -66.5 -7t-39.5 -30z" />
<glyph unicode="&#xa8;" horiz-adv-x="888" d="M14 1638q0 41 15.5 78t43 63.5t64.5 42t80 15.5q86 0 141.5 -57.5t55.5 -141.5q0 -86 -55.5 -142t-141.5 -56q-43 0 -80 15t-64.5 42t-43 62.5t-15.5 78.5zM473 1638q0 41 15.5 78t42 63.5t63.5 42t80 15.5q84 0 141 -57.5t57 -141.5q0 -86 -57 -142t-141 -56 q-86 0 -143.5 56t-57.5 142z" />
<glyph unicode="&#xa9;" horiz-adv-x="1591" d="M10 748q0 160 60.5 300t165 244.5t245 165t299.5 60.5q160 0 299.5 -60.5t243.5 -165t164.5 -245t60.5 -299.5q0 -160 -60.5 -299.5t-164.5 -244t-243.5 -164.5t-299.5 -60t-300 60t-244.5 164.5t-165 244t-60.5 299.5zM193 748q0 -121 46 -227.5t125.5 -186.5t187 -126 t228.5 -46t227.5 46t186.5 126t126 186.5t46 227.5t-46 228t-126 187t-186.5 126t-227.5 46t-228.5 -46t-187 -126t-125.5 -187t-46 -228zM375 745q0 80 31.5 152t86 125t127 84t152.5 31q53 0 110.5 -17.5t107.5 -50.5t89 -77t58 -97q4 -10 -1.5 -19.5t-15.5 -13.5 l-174 -67q-10 -4 -20.5 -1t-14.5 13q-29 45 -65.5 67.5t-73.5 22.5q-66 0 -112 -44t-46 -108q0 -63 46.5 -107t111.5 -44q35 0 72 22.5t61 59.5q14 23 37 12l172 -63q24 -10 16 -33q-18 -57 -57 -101.5t-88 -74t-105.5 -45t-107.5 -15.5q-80 0 -152.5 31t-127 83t-86 124 t-31.5 151z" />
<glyph unicode="&#xaa;" horiz-adv-x="745" d="M35 1429.5q6 22.5 22 32.5q23 14 51.5 28.5t61.5 22.5q104 25 186 25t160 -29q61 -23 95 -62.5t49.5 -85.5t18.5 -94t3 -91v-330q0 -20 -14.5 -34.5t-34.5 -14.5h-158q-20 0 -25.5 4t-5.5 10q0 12 -12 6t-33 -12q-27 -8 -62.5 -14.5t-74.5 -6.5t-75.5 10.5t-65.5 32.5 q-43 33 -61.5 84.5t-18.5 106.5q-2 63 23.5 106t65.5 68t87 36t90 11q27 2 45.5 1t32.5 -3q20 -2 31.5 6t-0.5 25q-27 33 -99 32q-59 0 -102 -11t-70 -21q-18 -10 -35.5 -5t-25.5 23l-45 103q-10 18 -4 40.5zM41 518q0 -20 14.5 -34.5t34.5 -14.5h565q20 0 35 14.5t15 34.5 v174q0 20 -15 34.5t-35 14.5h-565q-20 0 -34.5 -14t-14.5 -35v-174zM291 1044q0 -12 10 -18t25 -10q20 -4 48.5 -2t47.5 10l2 2q18 10 9 31.5t-27 23.5h-46q-18 0 -43.5 -9t-25.5 -28z" />
<glyph unicode="&#xab;" horiz-adv-x="1406" d="M63.5 752.5q-0.5 25.5 10.5 42.5l268 422q10 16 32.5 28t43.5 12h340q20 0 26.5 -12t-4.5 -28l-280 -422q-10 -18 -10.5 -42t12.5 -40l284 -420q10 -16 4 -28.5t-26 -12.5h-348q-20 0 -43 13.5t-33 29.5l-266 416q-10 16 -10.5 41.5zM610.5 754.5q-0.5 25.5 10.5 42.5 l270 420q10 16 32.5 28t43.5 12h342q20 0 26 -12t-4 -28l-280 -422q-10 -16 -10.5 -40t12.5 -40l284 -422q10 -16 4 -28.5t-26 -12.5h-350q-20 0 -43 13.5t-33 29.5l-268 418q-10 16 -10.5 41.5z" />
<glyph unicode="&#xac;" horiz-adv-x="1206" d="M45 754v276q0 20 14.5 34.5t34.5 14.5h942q20 0 34.5 -14t14.5 -35v-592q0 -20 -14.5 -34.5t-34.5 -14.5h-307q-20 0 -34.5 14.5t-14.5 34.5v219q0 20 -13.5 34t-35.5 14h-537q-20 0 -34.5 14t-14.5 35z" />
<glyph unicode="&#xad;" horiz-adv-x="1705" />
<glyph unicode="&#xae;" horiz-adv-x="1591" d="M12 748q0 160 60.5 300t165 244.5t244 165t298.5 60.5q160 0 300.5 -60.5t245 -165t164.5 -245t60 -299.5q0 -160 -60 -299.5t-164.5 -244t-245 -164.5t-300.5 -60t-299 60t-243.5 164.5t-165 244t-60.5 299.5zM195 748q0 -121 46 -227.5t125.5 -186.5t186 -126 t227.5 -46t227.5 46t186.5 126t126 186.5t46 227.5t-46 228t-126 187t-186.5 126t-227.5 46t-227.5 -46t-186 -126t-125.5 -187t-46 -228zM489 434v672q0 10 7.5 17t17.5 7h317q121 0 196 -75.5t75 -198.5t-84 -203q-8 -6 -9 -16t5 -19l137 -188q6 -8 3 -14t-13 -6h-236 q-10 0 -21.5 6t-15.5 14q-23 33 -50 66.5t-52 66.5q-14 18 -31 19q-16 0 -16 -25v-123q0 -10 -7 -17t-18 -7h-180q-10 0 -17.5 7t-7.5 17zM719 834q0 -10 7 -17.5t17 -7.5h88q6 0 27 9t21 38q0 27 -16.5 37t-31.5 10h-88q-10 0 -17 -7t-7 -17v-45z" />
<glyph unicode="&#xaf;" horiz-adv-x="808" d="M6 1530v219q0 20 14.5 34.5t34.5 14.5h656q20 0 34.5 -14.5t14.5 -34.5v-219q0 -20 -14.5 -34.5t-34.5 -14.5h-656q-20 0 -34.5 14t-14.5 35z" />
<glyph unicode="&#xb0;" horiz-adv-x="688" d="M18 1425q0 63 25 120t67 99t98 66.5t120 24.5q63 0 118.5 -24.5t97.5 -66.5t65.5 -98.5t23.5 -120.5q0 -63 -23.5 -119.5t-65.5 -98.5t-97.5 -66.5t-118.5 -24.5t-119.5 24.5t-98.5 66.5t-67 98.5t-25 119.5zM217 1425q0 -47 33 -79.5t80 -32.5t79.5 32.5t32.5 79.5 t-32.5 80t-79.5 33t-80 -33t-33 -80z" />
<glyph unicode="&#xb1;" horiz-adv-x="1124" d="M70 49v277q0 23 14 36t35 13h821q20 0 34.5 -13.5t14.5 -35.5v-277q0 -20 -14 -34.5t-35 -14.5h-821q-20 0 -34.5 14.5t-14.5 34.5zM70 778v275q0 23 14 36t35 13h157q20 0 35 14t15 35v184q0 23 14 36t35 13h311q20 0 34.5 -13t14.5 -36v-184q0 -20 14.5 -34.5 t34.5 -14.5h156q20 0 34.5 -13t14.5 -36v-275q0 -20 -14 -34.5t-35 -14.5h-156q-20 0 -34.5 -13.5t-14.5 -35.5v-182q0 -20 -14 -34.5t-35 -14.5h-311q-20 0 -34.5 14t-14.5 35v182q0 23 -14.5 36t-35.5 13h-157q-20 0 -34.5 14.5t-14.5 34.5z" />
<glyph unicode="&#xb2;" horiz-adv-x="815" d="M29 1333q18 45 49 97.5t76 95.5t104 71.5t135 28.5q94 0 163 -29.5t114 -78t66.5 -107.5t21.5 -119q0 -111 -55.5 -197.5t-153.5 -162.5q-25 -18 -30 -24.5t-17 -16.5q-16 -14 -13 -23.5t25 -9.5h205q23 0 37 -14.5t14 -34.5v-156q0 -20 -14.5 -34.5t-36.5 -14.5h-627 q-23 0 -36 14.5t-13 34.5v146q0 20 10 43.5t27 36.5q70 57 118 98t81.5 69.5t56 49t43.5 39.5q35 29 56.5 51t32.5 40.5t15 34t4 31.5q0 23 -9 38.5t-23.5 24.5t-30.5 12t-31 3q-41 0 -65.5 -36t-36.5 -70q-8 -18 -24.5 -28.5t-37.5 -6.5l-168 45q-20 4 -30.5 22.5 t-1.5 36.5z" />
<glyph unicode="&#xb3;" horiz-adv-x="786" d="M23 864q-8 20 2 37t28 21l144 30q18 4 34.5 -7t24.5 -30q12 -29 40 -55t83 -26q45 0 68.5 23.5t23.5 49.5q0 41 -18.5 63.5t-45 33t-57.5 11.5t-57 -1q-20 -2 -34.5 11t-14.5 34v82q0 20 14 33.5t35 13.5q29 0 65.5 4t69.5 20q23 10 37 33t10 49q-6 74 -96 74 q-53 0 -82 -24.5t-41 -53.5q-8 -18 -24.5 -29.5t-36.5 -7.5l-138 29q-20 4 -30.5 21.5t-3.5 35.5q16 45 44.5 94.5t71.5 90.5t102.5 68.5t137.5 27.5q98 0 166.5 -28.5t111.5 -72.5t62.5 -99.5t19.5 -108.5q0 -82 -31.5 -125t-68.5 -62q-31 -20 0 -39q35 -23 67.5 -69.5 t32.5 -122.5q0 -29 -12 -80t-53 -102q-29 -39 -66 -63.5t-76.5 -39t-78.5 -19.5t-74 -5q-80 0 -138.5 26.5t-101.5 68.5t-71.5 91t-44.5 94z" />
<glyph unicode="&#xb4;" horiz-adv-x="673" d="M-3.5 1434.5q-6.5 11.5 7.5 27.5l283 367q12 16 34.5 22t40.5 -2l295 -127q41 -20 7 -49l-293 -219q-16 -12 -42 -21.5t-46 -9.5h-260q-20 0 -26.5 11.5z" />
<glyph unicode="&#xb6;" horiz-adv-x="1114" d="M29 997q0 86 18.5 175.5t76.5 163t168.5 119.5t297.5 46h399q20 0 34.5 -13t14.5 -36v-1403q0 -20 -14 -34.5t-35 -14.5h-184q-20 0 -34.5 14.5t-14.5 34.5v1165q0 23 -14.5 36.5t-34.5 13.5h-11q-20 0 -34.5 -13.5t-14.5 -36.5v-1165q0 -20 -14.5 -34.5t-34.5 -14.5 h-178q-20 0 -34.5 14.5t-14.5 34.5v496q0 23 -14.5 36t-34.5 17q-61 8 -114.5 39t-93.5 82t-62.5 120.5t-22.5 157.5z" />
<glyph unicode="&#xb7;" horiz-adv-x="475" d="M23 842q0 43 16 81t45 66.5t66.5 45t80.5 16.5t82 -16.5t68 -45t45 -66.5t16 -81t-16 -82t-45 -67.5t-68 -45t-82 -16.5t-80.5 16.5t-66.5 45t-45 67.5t-16 82z" />
<glyph unicode="&#xb8;" horiz-adv-x="505" d="M-8 -336q-6 21 4 39l37 80q8 18 26.5 25.5t38.5 3.5q20 -6 46 -11.5t59 -5.5h13t23.5 5t22.5 15.5t10 32.5q0 27 -25.5 36.5t-41.5 9.5q-23 -2 -41.5 -6.5t-32.5 -8.5q-20 -6 -42.5 -2t-37.5 21v2q-14 14 -18 37.5t2 44.5l57 139q8 18 26.5 31.5t41.5 13.5h112 q20 0 28.5 -12.5t-1.5 -30.5v-2q-10 -18 -2 -32.5t29 -18.5q33 -6 73.5 -25.5t71.5 -64.5q18 -29 28.5 -75t6.5 -89q-4 -72 -40 -122t-95 -79q-47 -23 -92.5 -27t-61.5 -4q-68 2 -119 17.5t-82 31.5q-18 10 -24 31z" />
<glyph unicode="&#xb9;" horiz-adv-x="585" d="M1 1263.5q1 20.5 17 34.5l289 273q14 14 39 23.5t45 9.5h76q20 0 34.5 -15t14.5 -35v-890q0 -20 -14.5 -35t-34.5 -15h-168q-20 0 -34.5 14.5t-14.5 35.5v438q0 20 -10.5 25.5t-24.5 -11.5q-4 -4 -7 -8t-7 -8q-14 -14 -34 -14.5t-34 16.5l-119 127q-14 14 -13 34.5z" />
<glyph unicode="&#xba;" horiz-adv-x="808" d="M39 1157q0 76 28.5 142.5t78 115.5t115 78t140.5 29q76 0 142.5 -29t117 -78t79 -115.5t28.5 -142.5t-28.5 -142.5t-79 -115.5t-117 -77.5t-142.5 -28.5t-141 28.5t-114.5 77.5t-78 115.5t-28.5 142.5zM72 518v174q0 20 14 34.5t35 14.5h565q20 0 34.5 -14t14.5 -35v-174 q0 -20 -14.5 -34.5t-34.5 -14.5h-565q-20 0 -34.5 14.5t-14.5 34.5zM309 1157q0 -41 28 -70.5t64 -29.5q41 0 67 29.5t26 70.5t-26 72t-67 31q-37 0 -64.5 -31t-27.5 -72z" />
<glyph unicode="&#xbb;" horiz-adv-x="1406" d="M64 264.5q-6 12.5 4 28.5l284 422q12 16 12.5 39.5t-12.5 40.5l-278 422q-10 16 -4 28t26 12h342q20 0 43 -12t33 -28l270 -420q10 -16 10.5 -42t-10.5 -42l-268 -418q-10 -16 -32.5 -29.5t-43.5 -13.5h-350q-20 0 -26 12.5zM614.5 264.5q-6.5 12.5 3.5 28.5l285 420 q12 16 12 39.5t-10 42.5l-280 422q-10 16 -4 28t26 12h340q20 0 43 -12t33 -28l268 -422q10 -16 10 -42t-10 -42l-266 -416q-10 -16 -32.5 -29.5t-43.5 -13.5h-348q-20 0 -26.5 12.5z" />
<glyph unicode="&#xbc;" horiz-adv-x="1789" d="M-24.5 1161q-0.5 21 16.5 35l289 272q16 14 39.5 23.5t46.5 9.5h73q23 0 37.5 -14.5t14.5 -34.5v-891q0 -20 -14.5 -34.5t-37.5 -14.5h-166q-23 0 -36 14.5t-13 34.5v438q0 20 -10 25.5t-27 -10.5q-4 -4 -7 -8.5t-7 -8.5q-14 -14 -33.5 -14t-34.5 16l-116 127 q-14 14 -14.5 35zM245.5 12.5q-5.5 12.5 4.5 30.5l844 1415q10 18 31.5 30.5t43.5 12.5h220q23 0 28.5 -12t-4.5 -31l-842 -1415q-10 -18 -31.5 -30.5t-43.5 -12.5h-222q-23 0 -28.5 12.5zM940 256v125q0 20 8 46t23 42l442 532q14 16 37 26.5t45 10.5h115q23 0 36 -14 t13 -35v-483q0 -20 14.5 -34.5t36.5 -14.5h12q23 0 36.5 -14.5t13.5 -34.5v-152q0 -20 -13.5 -34.5t-36.5 -14.5h-12q-23 0 -37 -14.5t-14 -34.5v-109q0 -20 -13.5 -34.5t-35.5 -14.5h-170q-23 0 -37 14.5t-14 34.5v109q0 20 -13.5 34.5t-36.5 14.5h-350q-23 0 -36 14.5 t-13 34.5zM1296 485q-10 -16 9.5 -22t37.5 -6t32 7t14 28v61q0 45 -29 8z" />
<glyph unicode="&#xbd;" horiz-adv-x="1841" d="M-33.5 1161q0.5 21 15.5 35l288 272q16 14 40 23.5t46 9.5h76q20 0 34.5 -14.5t14.5 -34.5v-891q0 -20 -14 -34.5t-35 -14.5h-168q-23 0 -36 14.5t-13 34.5v438q0 20 -10 25.5t-25 -10.5q-4 -4 -8 -7t-8 -8q-14 -16 -33.5 -16t-34.5 16l-116 127q-14 14 -13.5 35z M235.5 12.5q-5.5 12.5 4.5 30.5l843 1417q10 16 32 28.5t44 12.5h221q20 0 26.5 -12t-3.5 -29l-842 -1417q-10 -18 -31.5 -30.5t-42.5 -12.5h-223q-23 0 -28.5 12.5zM1036 731q18 45 49 97.5t76 95.5t104.5 71.5t135.5 28.5q94 0 162.5 -29.5t113.5 -78t66.5 -107.5 t21.5 -119q0 -111 -55 -197.5t-154 -162.5q-23 -18 -28.5 -24.5t-18.5 -16.5q-16 -14 -13 -23.5t26 -9.5h207q20 0 34.5 -14.5t14.5 -34.5v-156q0 -20 -14.5 -34.5t-34.5 -14.5h-629q-23 0 -36 14.5t-13 34.5v146q0 20 10 43.5t26 35.5q70 57 118 98.5t82 70t56.5 49 t42.5 38.5q35 29 56.5 51.5t33 41t15.5 34t4 31.5q0 23 -9 38t-23.5 24.5t-31 12.5t-30.5 3q-41 0 -65.5 -36t-37.5 -70q-6 -18 -23.5 -28.5t-37.5 -6.5l-168 45q-20 4 -29.5 22.5t-3.5 36.5z" />
<glyph unicode="&#xbe;" horiz-adv-x="1961" d="M4 762q-8 20 2 36.5t29 20.5l141 31q20 4 36.5 -7.5t25.5 -29.5q12 -29 39.5 -55.5t82.5 -26.5q45 0 69 23.5t24 50.5q0 41 -18.5 63.5t-45.5 32.5t-58.5 11t-56.5 -1q-20 -2 -34.5 11.5t-14.5 33.5v82q0 20 14.5 33.5t34.5 13.5q29 0 66 4.5t70 20.5q23 10 37 32.5 t10 49.5q-6 74 -97 74q-53 0 -81.5 -24.5t-40.5 -53.5q-8 -18 -24.5 -29.5t-37.5 -7.5l-137 29q-20 4 -30.5 21.5t-4.5 35.5q16 45 45 94t72 90t102.5 69t136.5 28q98 0 167 -29t112 -73t62.5 -99t19.5 -109q0 -82 -32 -125t-68 -61q-31 -20 0 -39q35 -23 67.5 -70 t32.5 -122q0 -29 -12.5 -80.5t-53.5 -102.5q-29 -39 -65.5 -63.5t-76.5 -38.5t-79 -19.5t-74 -5.5q-80 0 -138 27t-101 68.5t-72 91t-45 94.5zM384.5 12.5q-7.5 12.5 2.5 30.5l846 1415q10 18 31.5 30.5t42.5 12.5h221q20 0 27.5 -12t-3.5 -31l-843 -1415q-10 -18 -32 -30.5 t-42 -12.5h-223q-20 0 -27.5 12.5zM1022 256v125q0 20 8 46t23 42l442 532q14 16 36.5 26.5t45.5 10.5h115q23 0 36 -14t13 -35v-483q0 -20 14 -34.5t37 -14.5h12q23 0 36 -14.5t13 -34.5v-152q0 -20 -13 -34.5t-36 -14.5h-12q-23 0 -37 -14.5t-14 -34.5v-109 q0 -20 -13.5 -34.5t-35.5 -14.5h-170q-23 0 -37.5 14.5t-14.5 34.5v109q0 20 -13 34.5t-36 14.5h-350q-23 0 -36 14.5t-13 34.5zM1378 485q-10 -16 9.5 -22t37.5 -6t31.5 7t13.5 28v61q1 45 -28 8z" />
<glyph unicode="&#xbf;" horiz-adv-x="1196" d="M29 412q0 106 26.5 172.5t66.5 106.5t89 63.5t93 46t78 52.5t44 85q4 20 18.5 34.5t34.5 14.5h312q23 0 37 -14.5t12 -34.5q-4 -143 -77 -225t-216 -146q-66 -29 -90.5 -53.5t-24.5 -71.5q0 -4 1 -19t13.5 -31.5t42 -30t86.5 -13.5q66 0 109 15.5t70.5 41t43 56.5 t27.5 61q6 18 25.5 27.5t38.5 3.5l233 -76q18 -6 27.5 -24.5t5.5 -38.5q-14 -55 -43 -131t-92.5 -146.5t-170 -120t-278.5 -49.5q-86 0 -152.5 14.5t-118.5 38t-89 51t-61 56.5q-57 63 -89 132t-32 153zM432 1169v283q0 20 14.5 34.5t34.5 14.5h307q23 0 36.5 -14.5 t13.5 -34.5v-283q0 -20 -13.5 -34.5t-36.5 -14.5h-307q-20 0 -34.5 14.5t-14.5 34.5z" />
<glyph unicode="&#xc0;" d="M-47 37q-2 12 6 29l594 1386q8 18 27.5 31.5t42.5 13.5h286q20 0 40 -13.5t28 -31.5l598 -1393q8 -18 -3 -38.5t-44 -20.5h-350q-23 0 -42.5 13.5t-29.5 31.5l-55 123q-10 18 -30 31.5t-40 13.5h-432q-23 0 -42.5 -13.5t-27.5 -31.5l-57 -123q-8 -18 -27.5 -31.5 t-40.5 -13.5h-352q-10 0 -21.5 4t-18.5 12.5t-9 20.5zM289 1817q-35 29 6 49l295 127q18 8 40.5 2t35.5 -23l284 -366q12 -16 7 -27.5t-25 -11.5h-260q-20 0 -46 9t-42 21zM643 574.5q8 -13.5 31 -13.5h182q20 0 29.5 13.5t-0.5 31.5q-20 51 -49 120t-54 128q-8 18 -18 18 t-19 -18l-102 -248q-8 -18 0 -31.5z" />
<glyph unicode="&#xc1;" d="M-47 37q-2 12 6 29l594 1386q8 18 27.5 31.5t42.5 13.5h286q20 0 40 -13.5t28 -31.5l598 -1393q8 -18 -3 -38.5t-44 -20.5h-350q-23 0 -42.5 13.5t-29.5 31.5l-55 123q-10 18 -30 31.5t-40 13.5h-432q-23 0 -42.5 -13.5t-27.5 -31.5l-57 -123q-8 -18 -27.5 -31.5 t-40.5 -13.5h-352q-10 0 -21.5 4t-18.5 12.5t-9 20.5zM588 1578q-6 11 8 28l283 366q12 16 34.5 22.5t40.5 -1.5l295 -127q41 -20 6 -49l-292 -220q-16 -12 -42 -21t-47 -9h-260q-20 0 -26 11zM643 574.5q8 -13.5 31 -13.5h182q20 0 29.5 13.5t-0.5 31.5q-20 51 -49 120 t-54 128q-8 18 -18 18t-19 -18l-102 -248q-8 -18 0 -31.5z" />
<glyph unicode="&#xc2;" d="M-47 37q-2 12 6 29l594 1386q8 18 27.5 31.5t42.5 13.5h286q20 0 40 -13.5t28 -31.5l598 -1393q8 -18 -3 -38.5t-44 -20.5h-350q-23 0 -42.5 13.5t-29.5 31.5l-55 123q-10 18 -30 31.5t-40 13.5h-432q-23 0 -42.5 -13.5t-27.5 -31.5l-57 -123q-8 -18 -27.5 -31.5 t-40.5 -13.5h-352q-10 0 -21.5 4t-18.5 12.5t-9 20.5zM296.5 1572q-5.5 11 6.5 27l281 355q12 16 36 27.5t44 11.5h188q20 0 44 -11.5t36 -27.5l285 -352q12 -16 7 -27.5t-26 -11.5h-293q-20 0 -43.5 11t-36.5 28l-37 43q-12 16 -30.5 15t-30.5 -18l-33 -43 q-12 -16 -34.5 -27t-43.5 -11h-294q-20 0 -25.5 11zM643 574.5q8 -13.5 31 -13.5h182q20 0 29.5 13.5t-0.5 31.5q-20 51 -49 120t-54 128q-8 18 -18 18t-19 -18l-102 -248q-8 -18 0 -31.5z" />
<glyph unicode="&#xc3;" d="M-47 37q-2 12 6 29l594 1386q8 18 27.5 31.5t42.5 13.5h286q20 0 40 -13.5t28 -31.5l598 -1393q8 -18 -3 -38.5t-44 -20.5h-350q-23 0 -42.5 13.5t-29.5 31.5l-55 123q-10 18 -30 31.5t-40 13.5h-432q-23 0 -42.5 -13.5t-27.5 -31.5l-57 -123q-8 -18 -27.5 -31.5 t-40.5 -13.5h-352q-10 0 -21.5 4t-18.5 12.5t-9 20.5zM324 1681q14 49 36.5 100.5t55.5 94.5t78 70.5t106 29.5q72 2 122 -27.5t90 -55t74 -28.5t72 50q12 16 33 23.5t39 0.5l168 -61q20 -8 29.5 -26.5t3.5 -39.5q-18 -53 -46 -101t-65 -85t-84 -58.5t-104 -17.5t-100.5 34 t-80 53.5t-69.5 22.5t-70 -56q-12 -16 -32.5 -25.5t-40.5 -5.5l-181 49q-20 4 -30.5 22.5t-3.5 36.5zM643 574.5q8 -13.5 31 -13.5h182q20 0 29.5 13.5t-0.5 31.5q-20 51 -49 120t-54 128q-8 18 -18 18t-19 -18l-102 -248q-8 -18 0 -31.5z" />
<glyph unicode="&#xc4;" d="M-47 37q-2 12 6 29l594 1386q8 18 27.5 31.5t42.5 13.5h286q20 0 40 -13.5t28 -31.5l598 -1393q8 -18 -3 -38.5t-44 -20.5h-350q-23 0 -42.5 13.5t-29.5 31.5l-55 123q-10 18 -30 31.5t-40 13.5h-432q-23 0 -42.5 -13.5t-27.5 -31.5l-57 -123q-8 -18 -27.5 -31.5 t-40.5 -13.5h-352q-10 0 -21.5 4t-18.5 12.5t-9 20.5zM328 1782q0 41 15 77.5t43 63.5t64.5 42t79.5 15q86 0 141.5 -57t55.5 -141q0 -86 -55.5 -142.5t-141.5 -56.5q-43 0 -79.5 15.5t-64.5 42t-43 62.5t-15 79zM643 574.5q8 -13.5 31 -13.5h182q20 0 29.5 13.5t-0.5 31.5 q-20 51 -49 120t-54 128q-8 18 -18 18t-19 -18l-102 -248q-8 -18 0 -31.5zM786 1782q0 41 15.5 77.5t42 63.5t63.5 42t80 15q84 0 141.5 -57t57.5 -141q0 -86 -57.5 -142.5t-141.5 -56.5q-86 0 -143.5 56.5t-57.5 142.5z" />
<glyph unicode="&#xc5;" d="M-47 37q-2 12 6 29l588 1374q-27 35 -41 78t-14 90q0 55 21.5 105t58 87t86 58.5t106.5 21.5q55 0 105.5 -21.5t87 -58.5t58 -87t21.5 -105q0 -92 -55 -164l594 -1385q8 -18 -3 -38.5t-44 -20.5h-350q-23 0 -42.5 13.5t-29.5 31.5l-55 123q-10 18 -30 31.5t-40 13.5h-432 q-23 0 -42.5 -13.5t-27.5 -31.5l-57 -123q-8 -18 -27.5 -31.5t-40.5 -13.5h-352q-10 0 -21.5 4t-18.5 12.5t-9 20.5zM643 574.5q8 -13.5 31 -13.5h182q20 0 29.5 13.5t-0.5 31.5q-20 51 -49 120t-54 128q-8 18 -18 18t-19 -18l-102 -248q-8 -18 0 -31.5zM676 1606 q0 -37 25.5 -62.5t62.5 -25.5t62.5 25.5t25.5 62.5t-25.5 62.5t-62.5 25.5t-62.5 -25.5t-25.5 -62.5z" />
<glyph unicode="&#xc6;" horiz-adv-x="2174" d="M-77.5 17.5q-6.5 17.5 3.5 33.5l928 1409q10 16 32.5 28.5t43.5 12.5h985q23 0 36 -14t13 -35v-283q0 -20 -13.5 -34.5t-35.5 -14.5h-637q-20 0 -34.5 -14.5t-14.5 -34.5v-82q0 -20 14 -34.5t35 -14.5h555q23 0 36 -14.5t13 -34.5v-285q0 -20 -13.5 -34.5t-35.5 -14.5 h-555q-20 0 -34.5 -14.5t-14.5 -34.5v-76q0 -20 14 -34.5t35 -14.5h637q23 0 36 -14.5t13 -34.5v-285q0 -20 -13.5 -34.5t-35.5 -14.5h-1045q-20 0 -34.5 14.5t-14.5 34.5v129q0 20 -13 34.5t-36 14.5h-215q-20 0 -42.5 -12t-33.5 -29q-23 -35 -47 -72.5t-47 -72.5 q-12 -16 -33.5 -28.5t-44.5 -12.5h-360q-20 0 -26.5 17.5zM703 588q4 -15 45 -15h30q49 0 49 43v138q0 14 -11 17t-21 -11l-86 -137q-10 -20 -6 -35z" />
<glyph unicode="&#xc7;" horiz-adv-x="1601" d="M41 748q0 160 61.5 301t169 245.5t251 166t306.5 61.5q135 0 244 -31t197 -86t158.5 -134t130.5 -173q10 -16 3.5 -35t-24.5 -27l-291 -114q-20 -8 -40.5 0t-30.5 24q-59 94 -143.5 144.5t-203.5 50.5q-78 0 -146.5 -33t-119.5 -87t-79.5 -126t-28.5 -147 q0 -78 28.5 -149t79.5 -124t120 -86t146 -33q113 0 204 54.5t145 140.5q10 16 29.5 24.5t39.5 -0.5l291 -114q18 -8 24.5 -25.5t-3.5 -36.5q-106 -174 -258 -286.5t-373 -132.5l-4 -3q-23 -4 -17 -24.5t41 -20.5q33 0 74 -22.5t72 -67.5q18 -29 28.5 -75t5.5 -89 q-4 -72 -39.5 -122t-95.5 -78q-47 -23 -92 -27t-61 -4q-68 2 -119 17.5t-82 31.5q-18 10 -24.5 31t3.5 39l37 80q8 18 26.5 25t39.5 3q20 -6 46 -11t58 -5h13.5t23.5 5t22.5 15.5t10.5 32.5q0 27 -25.5 36t-42.5 9q-23 -2 -41 -6t-32 -8q-20 -6 -43 -2t-37 20v2 q-14 14 -18.5 38t1.5 44l45 109q4 14 -5 22.5t-23 12.5q-135 27 -252 96.5t-201 169.5t-132 226t-48 268z" />
<glyph unicode="&#xc8;" horiz-adv-x="1398" d="M109 49v1401q0 20 14 34.5t35 14.5h1042q20 0 34.5 -14.5t14.5 -34.5v-279q0 -20 -14 -34.5t-35 -14.5h-637q-20 0 -34.5 -14.5t-14.5 -34.5v-86q0 -20 14.5 -34.5t34.5 -14.5h555q20 0 34.5 -14.5t14.5 -34.5v-283q0 -20 -14 -34.5t-35 -14.5h-555q-20 0 -34.5 -14.5 t-14.5 -34.5v-78q0 -20 14.5 -34.5t34.5 -14.5h637q20 0 34.5 -14.5t14.5 -34.5v-283q0 -20 -14 -34.5t-35 -14.5h-1042q-20 0 -34.5 14.5t-14.5 34.5zM266 1817q-35 29 6 49l295 127q18 8 41 2t35 -23l285 -366q12 -16 6.5 -27.5t-25.5 -11.5h-260q-20 0 -45.5 9t-42.5 21z " />
<glyph unicode="&#xc9;" horiz-adv-x="1398" d="M109 49v1401q0 20 14 34.5t35 14.5h1042q20 0 34.5 -14.5t14.5 -34.5v-279q0 -20 -14 -34.5t-35 -14.5h-637q-20 0 -34.5 -14.5t-14.5 -34.5v-86q0 -20 14.5 -34.5t34.5 -14.5h555q20 0 34.5 -14.5t14.5 -34.5v-283q0 -20 -14 -34.5t-35 -14.5h-555q-20 0 -34.5 -14.5 t-14.5 -34.5v-78q0 -20 14.5 -34.5t34.5 -14.5h637q20 0 34.5 -14.5t14.5 -34.5v-283q0 -20 -14 -34.5t-35 -14.5h-1042q-20 0 -34.5 14.5t-14.5 34.5zM393.5 1578q-6.5 11 7.5 28l283 366q12 16 35 22.5t41 -1.5l295 -127q41 -20 6 -49l-293 -220q-16 -12 -42 -21t-46 -9 h-260q-20 0 -26.5 11z" />
<glyph unicode="&#xca;" horiz-adv-x="1398" d="M109 49v1401q0 20 14 34.5t35 14.5h1042q20 0 34.5 -14.5t14.5 -34.5v-279q0 -20 -14 -34.5t-35 -14.5h-637q-20 0 -34.5 -14.5t-14.5 -34.5v-86q0 -20 14.5 -34.5t34.5 -14.5h555q20 0 34.5 -14.5t14.5 -34.5v-283q0 -20 -14 -34.5t-35 -14.5h-555q-20 0 -34.5 -14.5 t-14.5 -34.5v-78q0 -20 14.5 -34.5t34.5 -14.5h637q20 0 34.5 -14.5t14.5 -34.5v-283q0 -20 -14 -34.5t-35 -14.5h-1042q-20 0 -34.5 14.5t-14.5 34.5zM204 1572q-5 11 7 27l281 355q12 16 35.5 27.5t43.5 11.5h189q20 0 43.5 -11.5t36.5 -27.5l284 -352q12 -16 7 -27.5 t-25 -11.5h-293q-20 0 -44 11t-36 28l-37 43q-12 16 -30.5 15t-30.5 -18l-33 -43q-12 -16 -34.5 -27t-43.5 -11h-295q-20 0 -25 11z" />
<glyph unicode="&#xcb;" horiz-adv-x="1398" d="M109 49v1401q0 20 14 34.5t35 14.5h1042q20 0 34.5 -14.5t14.5 -34.5v-279q0 -20 -14 -34.5t-35 -14.5h-637q-20 0 -34.5 -14.5t-14.5 -34.5v-86q0 -20 14.5 -34.5t34.5 -14.5h555q20 0 34.5 -14.5t14.5 -34.5v-283q0 -20 -14 -34.5t-35 -14.5h-555q-20 0 -34.5 -14.5 t-14.5 -34.5v-78q0 -20 14.5 -34.5t34.5 -14.5h637q20 0 34.5 -14.5t14.5 -34.5v-283q0 -20 -14 -34.5t-35 -14.5h-1042q-20 0 -34.5 14.5t-14.5 34.5zM236 1782q0 41 15 77.5t43 63.5t64.5 42t79.5 15q86 0 141.5 -57t55.5 -141q0 -86 -55.5 -142.5t-141.5 -56.5 q-43 0 -79.5 15.5t-64.5 42t-43 62.5t-15 79zM694 1782q0 41 15.5 77.5t42 63.5t63.5 42t80 15q84 0 141.5 -57t57.5 -141q0 -86 -57.5 -142.5t-141.5 -56.5q-86 0 -143.5 56.5t-57.5 142.5z" />
<glyph unicode="&#xcc;" horiz-adv-x="696" d="M-164 1817q-35 29 6 49l295 127q18 8 41 2t35 -23l285 -366q12 -16 6.5 -27.5t-25.5 -11.5h-260q-20 0 -46 9t-42 21zM127 49v1399q0 20 13.5 34.5t35.5 14.5h309q20 0 35 -14.5t15 -34.5v-1399q0 -20 -15 -34.5t-35 -14.5h-309q-23 0 -36 14.5t-13 34.5z" />
<glyph unicode="&#xcd;" horiz-adv-x="696" d="M127 49v1399q0 20 13.5 34.5t35.5 14.5h309q20 0 35 -14.5t15 -34.5v-1399q0 -20 -15 -34.5t-35 -14.5h-309q-23 0 -36 14.5t-13 34.5zM141.5 1578q-6.5 11 8.5 28l282 366q12 16 35 22.5t41 -1.5l295 -127q41 -20 6 -49l-293 -220q-16 -12 -41.5 -21t-46.5 -9h-260 q-20 0 -26.5 11z" />
<glyph unicode="&#xce;" horiz-adv-x="696" d="M-134 1572q-5 11 7 27l281 355q12 16 35.5 27.5t43.5 11.5h189q20 0 43.5 -11.5t36.5 -27.5l284 -352q12 -16 7 -27.5t-25 -11.5h-293q-20 0 -43.5 11t-36.5 28l-37 43q-12 16 -30.5 15t-30.5 -18l-33 -43q-12 -16 -34.5 -27t-43.5 -11h-295q-20 0 -25 11zM127 49v1399 q0 20 13.5 34.5t35.5 14.5h309q20 0 35 -14.5t15 -34.5v-1399q0 -20 -15 -34.5t-35 -14.5h-309q-23 0 -36 14.5t-13 34.5z" />
<glyph unicode="&#xcf;" horiz-adv-x="696" d="M-100 1782q0 41 15 77.5t43 63.5t64.5 42t79.5 15q86 0 141.5 -57t55.5 -141q0 -86 -55.5 -142.5t-141.5 -56.5q-43 0 -79.5 15.5t-64.5 42t-43 62.5t-15 79zM127 49v1399q0 20 13.5 34.5t35.5 14.5h309q20 0 35 -14.5t15 -34.5v-1399q0 -20 -15 -34.5t-35 -14.5h-309 q-23 0 -36 14.5t-13 34.5zM358 1782q0 41 15.5 77.5t42 63.5t63.5 42t80 15q84 0 141.5 -57t57.5 -141q0 -86 -57.5 -142.5t-141.5 -56.5q-86 0 -143.5 56.5t-57.5 142.5z" />
<glyph unicode="&#xd0;" horiz-adv-x="1671" d="M29 604v277q0 23 13 36t36 13h51q20 0 34.5 14t14.5 35v471q0 23 13.5 36t35.5 13h557q322 0 527 -188q111 -102 168 -243.5t57 -317.5q0 -160 -49 -294t-141 -235q-8 -8 -14.5 -13t-10.5 -9l-10 -11l-11 -10q-4 -4 -12 -9t-16 -11q-98 -78 -221 -118t-267 -40h-557 q-23 0 -36 14.5t-13 34.5v457q0 23 -14 36t-35 13h-51q-23 0 -36 14.5t-13 34.5zM584 426q0 -20 13 -34.5t36 -14.5h151q59 0 121 14.5t111 54t80.5 112.5t31.5 190t-31.5 189.5t-81.5 112.5t-111.5 54t-119.5 14h-151q-23 0 -36 -13t-13 -36v-90q0 -20 13 -34.5t36 -14.5 h135q20 0 34.5 -13.5t14.5 -35.5v-277q0 -20 -14.5 -34.5t-34.5 -14.5h-135q-23 0 -36 -13.5t-13 -35.5v-80z" />
<glyph unicode="&#xd1;" horiz-adv-x="1716" d="M113 49v1401q0 20 14 34.5t35 14.5h307q20 0 43 -11t35 -28l532 -751q12 -16 25.5 -14.5t13.5 22.5v733q0 20 14.5 34.5t34.5 14.5h303q20 0 35 -14.5t15 -34.5v-1401q0 -20 -14.5 -34.5t-35.5 -14.5h-303q-20 0 -42.5 12.5t-34.5 28.5l-535 752q-12 16 -25.5 13 t-13.5 -24v-733q0 -20 -14.5 -34.5t-34.5 -14.5h-305q-20 0 -34.5 14.5t-14.5 34.5zM346 1681q14 49 37 100.5t55.5 94.5t77.5 70.5t107 29.5q72 2 122 -27.5t89.5 -55t73.5 -28.5t73 50q12 16 32.5 23.5t39.5 0.5l168 -61q20 -8 29.5 -26.5t2.5 -39.5q-18 -53 -45.5 -101 t-64.5 -85t-84 -58.5t-105 -17.5q-57 4 -100 34t-80 53.5t-69.5 22.5t-69.5 -56q-12 -16 -33 -25.5t-41 -5.5l-180 49q-20 4 -30.5 22.5t-4.5 36.5z" />
<glyph unicode="&#xd2;" horiz-adv-x="1695" d="M45 750q0 160 61.5 301t166 246.5t245.5 167t301 61.5t301.5 -61.5t247 -167t166.5 -247t61 -300.5q0 -160 -61 -301.5t-166.5 -247t-247 -167t-301.5 -61.5t-301 61.5t-245.5 167t-166 247t-61.5 301.5zM406 1817q-35 29 6 49l295 127q18 8 40.5 2t34.5 -23l285 -366 q12 -16 7 -27.5t-25 -11.5h-261q-20 0 -45.5 9t-42.5 21zM451 750q0 -78 28.5 -148t78.5 -123t117.5 -85t143.5 -32t143.5 32t119 85t80 123t28.5 148q0 76 -28.5 146.5t-80 122.5t-119 84t-143.5 32t-143.5 -32t-117.5 -84t-78.5 -122.5t-28.5 -146.5z" />
<glyph unicode="&#xd3;" horiz-adv-x="1695" d="M45 750q0 160 61.5 301t166 246.5t245.5 167t301 61.5t301.5 -61.5t247 -167t166.5 -247t61 -300.5q0 -160 -61 -301.5t-166.5 -247t-247 -167t-301.5 -61.5t-301 61.5t-245.5 167t-166 247t-61.5 301.5zM451 750q0 -78 28.5 -148t78.5 -123t117.5 -85t143.5 -32 t143.5 32t119 85t80 123t28.5 148q0 76 -28.5 146.5t-80 122.5t-119 84t-143.5 32t-143.5 -32t-117.5 -84t-78.5 -122.5t-28.5 -146.5zM559.5 1578q-6.5 11 7.5 28l283 366q12 16 35 22.5t41 -1.5l295 -127q41 -20 6 -49l-293 -220q-16 -12 -42 -21t-46 -9h-260 q-20 0 -26.5 11z" />
<glyph unicode="&#xd4;" horiz-adv-x="1695" d="M45 750q0 160 61.5 301t166 246.5t245.5 167t301 61.5t301.5 -61.5t247 -167t166.5 -247t61 -300.5q0 -160 -61 -301.5t-166.5 -247t-247 -167t-301.5 -61.5t-301 61.5t-245.5 167t-166 247t-61.5 301.5zM353.5 1572q-5.5 11 6.5 27l281 355q12 16 36 27.5t44 11.5h188 q20 0 44 -11.5t36 -27.5l285 -352q12 -16 7 -27.5t-26 -11.5h-292q-20 0 -44 11t-36 28l-37 43q-12 16 -30.5 15t-31.5 -18l-32 -43q-12 -16 -35 -27t-43 -11h-295q-20 0 -25.5 11zM451 750q0 -78 28.5 -148t78.5 -123t117.5 -85t143.5 -32t143.5 32t119 85t80 123t28.5 148 q0 76 -28.5 146.5t-80 122.5t-119 84t-143.5 32t-143.5 -32t-117.5 -84t-78.5 -122.5t-28.5 -146.5z" />
<glyph unicode="&#xd5;" horiz-adv-x="1695" d="M45 750q0 160 61.5 301t166 246.5t245.5 167t301 61.5t301.5 -61.5t247 -167t166.5 -247t61 -300.5q0 -160 -61 -301.5t-166.5 -247t-247 -167t-301.5 -61.5t-301 61.5t-245.5 167t-166 247t-61.5 301.5zM346 1681q14 49 37 100.5t55.5 94.5t77.5 70.5t107 29.5 q72 2 122 -27.5t89.5 -55t73.5 -28.5t73 50q12 16 32.5 23.5t39.5 0.5l168 -61q20 -8 29.5 -26.5t2.5 -39.5q-18 -53 -45.5 -101t-64.5 -85t-84 -58.5t-105 -17.5q-57 4 -100 34t-80 53.5t-69.5 22.5t-69.5 -56q-12 -16 -33 -25.5t-41 -5.5l-180 49q-20 4 -30.5 22.5 t-4.5 36.5zM451 750q0 -78 28.5 -148t78.5 -123t117.5 -85t143.5 -32t143.5 32t119 85t80 123t28.5 148q0 76 -28.5 146.5t-80 122.5t-119 84t-143.5 32t-143.5 -32t-117.5 -84t-78.5 -122.5t-28.5 -146.5z" />
<glyph unicode="&#xd6;" horiz-adv-x="1695" d="M45 750q0 160 61.5 301t166 246.5t245.5 167t301 61.5t301.5 -61.5t247 -167t166.5 -247t61 -300.5q0 -160 -61 -301.5t-166.5 -247t-247 -167t-301.5 -61.5t-301 61.5t-245.5 167t-166 247t-61.5 301.5zM389 1782q0 41 15.5 77.5t43 63.5t64.5 42t80 15q86 0 141 -57 t55 -141q0 -86 -55 -142.5t-141 -56.5q-43 0 -80 15.5t-64.5 42t-43 62.5t-15.5 79zM451 750q0 -78 28.5 -148t78.5 -123t117.5 -85t143.5 -32t143.5 32t119 85t80 123t28.5 148q0 76 -28.5 146.5t-80 122.5t-119 84t-143.5 32t-143.5 -32t-117.5 -84t-78.5 -122.5 t-28.5 -146.5zM848 1782q0 41 15.5 77.5t42 63.5t63.5 42t80 15q84 0 141 -57t57 -141q0 -86 -57 -142.5t-141 -56.5q-86 0 -143.5 56.5t-57.5 142.5z" />
<glyph unicode="&#xd7;" horiz-adv-x="1032" d="M-16 1014.5q0 19.5 16 34.5l213 211q16 14 35.5 14t34.5 -14l168 -166q16 -14 35.5 -14.5t33.5 14.5l170 168q16 14 35.5 14t36.5 -14l211 -209q16 -14 16 -34t-16 -34l-172 -172q-14 -14 -14.5 -33.5t14.5 -36.5l170 -172q16 -16 16 -35.5t-16 -33.5l-211 -209 q-16 -14 -35.5 -14t-36.5 16l-168 168q-14 16 -33.5 16t-35.5 -16l-170 -170q-14 -14 -34 -14t-34 16l-209 211q-14 16 -14 35.5t14 33.5l166 166q16 16 16 36t-16 34l-170 170q-16 14 -16 33.5z" />
<glyph unicode="&#xd8;" horiz-adv-x="1732" d="M49 750q0 160 61.5 301t166 246.5t246 167t300.5 61.5q176 0 334 -76q18 -8 40 -5t36 19l55 64q14 16 33.5 17t36.5 -13l176 -156q16 -14 17 -33.5t-13 -35.5l-55 -64q-14 -16 -15.5 -37.5t9.5 -40.5q59 -92 90.5 -196.5t31.5 -218.5q0 -160 -61 -301.5t-166.5 -247 t-247 -167t-301.5 -61.5q-88 0 -171 19.5t-158 54.5q-18 8 -40 4t-36 -20l-60 -66q-14 -16 -33.5 -17t-35.5 13l-178 154q-16 12 -17.5 31.5t12.5 35.5l60 72q14 16 15 38.5t-11 39.5q-57 92 -89 196.5t-32 221.5zM455 750q0 -42 10 -93q4 -20 19.5 -23t29.5 13l385 434 q14 16 10 30.5t-24 18.5q-16 4 -30.5 4.5t-31.5 0.5q-76 0 -143.5 -32t-117.5 -84t-78.5 -123t-28.5 -146zM744 386.5q4 -13.5 24 -17.5q27 -6 55 -7q76 0 143.5 32t119 85t80 123t28.5 148q0 41 -10 88q-4 20 -18.5 23t-28.5 -13l-383 -432q-14 -16 -10 -29.5z" />
<glyph unicode="&#xd9;" horiz-adv-x="1613" d="M111 618v830q0 20 14 34.5t35 14.5h309q20 0 34.5 -14.5t14.5 -34.5v-830q0 -80 25.5 -132t63.5 -81.5t81 -42t78 -12.5t78 12.5t80 42t62.5 82t25.5 131.5v830q0 20 14 34.5t35 14.5h309q20 0 34.5 -14.5t14.5 -34.5v-830q0 -145 -46 -263.5t-132 -202.5t-207 -130.5 t-268 -46.5t-268 46.5t-207 130.5t-133 202.5t-47 263.5zM360 1817q-35 29 7 49l295 127q18 8 40.5 2t34.5 -23l285 -366q12 -16 7 -27.5t-25 -11.5h-261q-20 0 -45.5 9t-42.5 21z" />
<glyph unicode="&#xda;" horiz-adv-x="1613" d="M111 618v830q0 20 14 34.5t35 14.5h309q20 0 34.5 -14.5t14.5 -34.5v-830q0 -80 25.5 -132t63.5 -81.5t81 -42t78 -12.5t78 12.5t80 42t62.5 82t25.5 131.5v830q0 20 14 34.5t35 14.5h309q20 0 34.5 -14.5t14.5 -34.5v-830q0 -145 -46 -263.5t-132 -202.5t-207 -130.5 t-268 -46.5t-268 46.5t-207 130.5t-133 202.5t-47 263.5zM485.5 1578q-6.5 11 8.5 28l282 366q12 16 35 22.5t41 -1.5l295 -127q41 -20 6 -49l-293 -220q-16 -12 -41.5 -21t-46.5 -9h-260q-20 0 -26.5 11z" />
<glyph unicode="&#xdb;" horiz-adv-x="1613" d="M111 618v830q0 20 14 34.5t35 14.5h309q20 0 34.5 -14.5t14.5 -34.5v-830q0 -80 25.5 -132t63.5 -81.5t81 -42t78 -12.5t78 12.5t80 42t62.5 82t25.5 131.5v830q0 20 14 34.5t35 14.5h309q20 0 34.5 -14.5t14.5 -34.5v-830q0 -145 -46 -263.5t-132 -202.5t-207 -130.5 t-268 -46.5t-268 46.5t-207 130.5t-133 202.5t-47 263.5zM300.5 1572q-5.5 11 6.5 27l281 355q12 16 36 27.5t44 11.5h188q20 0 44 -11.5t36 -27.5l285 -352q12 -16 7 -27.5t-26 -11.5h-293q-20 0 -43.5 11t-36.5 28l-36 43q-12 16 -31 15t-31 -18l-33 -43 q-12 -16 -34.5 -27t-42.5 -11h-295q-20 0 -25.5 11z" />
<glyph unicode="&#xdc;" horiz-adv-x="1613" d="M111 618v830q0 20 14 34.5t35 14.5h309q20 0 34.5 -14.5t14.5 -34.5v-830q0 -80 25.5 -132t63.5 -81.5t81 -42t78 -12.5t78 12.5t80 42t62.5 82t25.5 131.5v830q0 20 14 34.5t35 14.5h309q20 0 34.5 -14.5t14.5 -34.5v-830q0 -145 -46 -263.5t-132 -202.5t-207 -130.5 t-268 -46.5t-268 46.5t-207 130.5t-133 202.5t-47 263.5zM334 1782q0 41 15.5 77.5t43 63.5t64.5 42t80 15q86 0 141 -57t55 -141q0 -86 -55 -142.5t-141 -56.5q-43 0 -80 15.5t-64.5 42t-43 62.5t-15.5 79zM793 1782q0 41 15 77.5t42 63.5t63.5 42t79.5 15q84 0 141.5 -57 t57.5 -141q0 -86 -57.5 -142.5t-141.5 -56.5q-86 0 -143 56.5t-57 142.5z" />
<glyph unicode="&#xdd;" horiz-adv-x="1452" d="M-47 1477.5q6 19.5 27 19.5h364q20 0 42 -12t32 -31l252 -438q10 -16 24.5 -16.5t24.5 16.5l250 438q10 18 31.5 30.5t41.5 12.5h369q20 0 29.5 -14t-6.5 -43l-512 -830q-10 -18 -18.5 -44.5t-8.5 -47.5v-469q0 -20 -14.5 -34.5t-34.5 -14.5h-309q-20 0 -35 14.5 t-15 34.5v467q0 20 -7 48t-17 44q-123 211 -251 414t-255 418q-10 18 -4 37.5zM424.5 1578q-6.5 11 7.5 28l283 366q12 16 35 22.5t41 -1.5l294 -127q41 -20 7 -49l-293 -220q-16 -12 -42 -21t-46 -9h-260q-20 0 -26.5 11z" />
<glyph unicode="&#xde;" horiz-adv-x="1456" d="M109 49v1401q0 23 14 36t35 13h309q20 0 34.5 -13t14.5 -36v-96q0 -20 14.5 -34.5t34.5 -14.5h219q115 0 216.5 -44t176 -119t118.5 -176.5t44 -215.5q0 -115 -44 -215.5t-118.5 -176t-176 -118.5t-216.5 -43h-219q-20 0 -34.5 -13.5t-14.5 -36.5v-98q0 -20 -14.5 -34.5 t-34.5 -14.5h-309q-20 0 -34.5 14.5t-14.5 34.5zM516 623q0 -20 14.5 -35t34.5 -15h219q31 0 58.5 15.5t47 41t32 57.5t12.5 63q0 33 -12.5 64.5t-32 56t-47 40t-58.5 15.5h-219q-20 0 -34.5 -13.5t-14.5 -35.5v-254z" />
<glyph unicode="&#xdf;" horiz-adv-x="2672" d="M41 234.5q-2 21.5 10 37.5l158 228q12 16 33 20t37 -6q111 -72 219 -113t202 -41q90 0 137.5 26t47.5 77q0 27 -20.5 42t-54.5 25.5t-79 16.5t-92 16q-45 8 -105.5 19.5t-124 33t-126 54t-111.5 84t-79 122t-30 166.5q0 141 55.5 233.5t140.5 147t189.5 76t202.5 21.5 q172 0 308.5 -50.5t261.5 -146.5q16 -14 18 -34.5t-10 -37.5l-160 -227q-12 -16 -32.5 -20.5t-37.5 8.5q-104 66 -194 93.5t-166 27.5q-23 0 -52.5 -1.5t-56 -8.5t-44 -23.5t-17.5 -44.5q0 -29 43 -51.5t98.5 -39t106.5 -25.5t65 -11q74 -14 162 -42t165 -82t129 -141.5 t52 -218.5q0 -123 -43 -212t-119.5 -146t-184 -85t-238.5 -28q-106 0 -198.5 17.5t-172.5 48.5t-148.5 73t-126.5 89q-16 12 -18 33.5zM1358 234.5q-2 21.5 10 37.5l158 228q12 16 32.5 20t36.5 -6q111 -72 219.5 -113t202.5 -41q90 0 137.5 26t47.5 77q0 27 -20.5 42 t-54.5 25.5t-79 16.5t-92 16q-45 8 -105.5 19.5t-124 33t-126 54t-111.5 84t-79 122t-30 166.5q0 141 55.5 233.5t140.5 147t189.5 76t202.5 21.5q172 0 308.5 -50.5t260.5 -146.5q16 -14 18.5 -34.5t-9.5 -37.5l-160 -227q-12 -16 -32.5 -20.5t-37.5 8.5q-104 66 -194 93.5 t-166 27.5q-23 0 -52.5 -1.5t-56 -8.5t-44 -23.5t-17.5 -44.5q0 -29 43 -51.5t98 -39t106.5 -25.5t65.5 -11q74 -14 162 -42t165 -82t129 -141.5t52 -218.5q0 -123 -43 -212t-120 -146t-184.5 -85t-238.5 -28q-106 0 -198 17.5t-172 48.5t-148.5 73t-126.5 89 q-16 12 -18 33.5z" />
<glyph unicode="&#xe0;" d="M-47 37q-2 12 6 29l594 1386q8 18 27.5 31.5t42.5 13.5h286q20 0 40 -13.5t28 -31.5l598 -1393q8 -18 -3 -38.5t-44 -20.5h-350q-23 0 -42.5 13.5t-29.5 31.5l-55 123q-10 18 -30 31.5t-40 13.5h-432q-23 0 -42.5 -13.5t-27.5 -31.5l-57 -123q-8 -18 -27.5 -31.5 t-40.5 -13.5h-352q-10 0 -21.5 4t-18.5 12.5t-9 20.5zM289 1817q-35 29 6 49l295 127q18 8 40.5 2t35.5 -23l284 -366q12 -16 7 -27.5t-25 -11.5h-260q-20 0 -46 9t-42 21zM643 574.5q8 -13.5 31 -13.5h182q20 0 29.5 13.5t-0.5 31.5q-20 51 -49 120t-54 128q-8 18 -18 18 t-19 -18l-102 -248q-8 -18 0 -31.5z" />
<glyph unicode="&#xe1;" d="M-47 37q-2 12 6 29l594 1386q8 18 27.5 31.5t42.5 13.5h286q20 0 40 -13.5t28 -31.5l598 -1393q8 -18 -3 -38.5t-44 -20.5h-350q-23 0 -42.5 13.5t-29.5 31.5l-55 123q-10 18 -30 31.5t-40 13.5h-432q-23 0 -42.5 -13.5t-27.5 -31.5l-57 -123q-8 -18 -27.5 -31.5 t-40.5 -13.5h-352q-10 0 -21.5 4t-18.5 12.5t-9 20.5zM588 1578q-6 11 8 28l283 366q12 16 34.5 22.5t40.5 -1.5l295 -127q41 -20 6 -49l-292 -220q-16 -12 -42 -21t-47 -9h-260q-20 0 -26 11zM643 574.5q8 -13.5 31 -13.5h182q20 0 29.5 13.5t-0.5 31.5q-20 51 -49 120 t-54 128q-8 18 -18 18t-19 -18l-102 -248q-8 -18 0 -31.5z" />
<glyph unicode="&#xe2;" d="M-47 37q-2 12 6 29l594 1386q8 18 27.5 31.5t42.5 13.5h286q20 0 40 -13.5t28 -31.5l598 -1393q8 -18 -3 -38.5t-44 -20.5h-350q-23 0 -42.5 13.5t-29.5 31.5l-55 123q-10 18 -30 31.5t-40 13.5h-432q-23 0 -42.5 -13.5t-27.5 -31.5l-57 -123q-8 -18 -27.5 -31.5 t-40.5 -13.5h-352q-10 0 -21.5 4t-18.5 12.5t-9 20.5zM296.5 1572q-5.5 11 6.5 27l281 355q12 16 36 27.5t44 11.5h188q20 0 44 -11.5t36 -27.5l285 -352q12 -16 7 -27.5t-26 -11.5h-293q-20 0 -43.5 11t-36.5 28l-37 43q-12 16 -30.5 15t-30.5 -18l-33 -43 q-12 -16 -34.5 -27t-43.5 -11h-294q-20 0 -25.5 11zM643 574.5q8 -13.5 31 -13.5h182q20 0 29.5 13.5t-0.5 31.5q-20 51 -49 120t-54 128q-8 18 -18 18t-19 -18l-102 -248q-8 -18 0 -31.5z" />
<glyph unicode="&#xe3;" d="M-47 37q-2 12 6 29l594 1386q8 18 27.5 31.5t42.5 13.5h286q20 0 40 -13.5t28 -31.5l598 -1393q8 -18 -3 -38.5t-44 -20.5h-350q-23 0 -42.5 13.5t-29.5 31.5l-55 123q-10 18 -30 31.5t-40 13.5h-432q-23 0 -42.5 -13.5t-27.5 -31.5l-57 -123q-8 -18 -27.5 -31.5 t-40.5 -13.5h-352q-10 0 -21.5 4t-18.5 12.5t-9 20.5zM324 1681q14 49 36.5 100.5t55.5 94.5t78 70.5t106 29.5q72 2 122 -27.5t90 -55t74 -28.5t72 50q12 16 33 23.5t39 0.5l168 -61q20 -8 29.5 -26.5t3.5 -39.5q-18 -53 -46 -101t-65 -85t-84 -58.5t-104 -17.5t-100.5 34 t-80 53.5t-69.5 22.5t-70 -56q-12 -16 -32.5 -25.5t-40.5 -5.5l-181 49q-20 4 -30.5 22.5t-3.5 36.5zM643 574.5q8 -13.5 31 -13.5h182q20 0 29.5 13.5t-0.5 31.5q-20 51 -49 120t-54 128q-8 18 -18 18t-19 -18l-102 -248q-8 -18 0 -31.5z" />
<glyph unicode="&#xe4;" d="M-47 37q-2 12 6 29l594 1386q8 18 27.5 31.5t42.5 13.5h286q20 0 40 -13.5t28 -31.5l598 -1393q8 -18 -3 -38.5t-44 -20.5h-350q-23 0 -42.5 13.5t-29.5 31.5l-55 123q-10 18 -30 31.5t-40 13.5h-432q-23 0 -42.5 -13.5t-27.5 -31.5l-57 -123q-8 -18 -27.5 -31.5 t-40.5 -13.5h-352q-10 0 -21.5 4t-18.5 12.5t-9 20.5zM328 1782q0 41 15 77.5t43 63.5t64.5 42t79.5 15q86 0 141.5 -57t55.5 -141q0 -86 -55.5 -142.5t-141.5 -56.5q-43 0 -79.5 15.5t-64.5 42t-43 62.5t-15 79zM643 574.5q8 -13.5 31 -13.5h182q20 0 29.5 13.5t-0.5 31.5 q-20 51 -49 120t-54 128q-8 18 -18 18t-19 -18l-102 -248q-8 -18 0 -31.5zM786 1782q0 41 15.5 77.5t42 63.5t63.5 42t80 15q84 0 141.5 -57t57.5 -141q0 -86 -57.5 -142.5t-141.5 -56.5q-86 0 -143.5 56.5t-57.5 142.5z" />
<glyph unicode="&#xe5;" d="M-47 37q-2 12 6 29l588 1374q-27 35 -41 78t-14 90q0 55 21.5 105t58 87t86 58.5t106.5 21.5q55 0 105.5 -21.5t87 -58.5t58 -87t21.5 -105q0 -92 -55 -164l594 -1385q8 -18 -3 -38.5t-44 -20.5h-350q-23 0 -42.5 13.5t-29.5 31.5l-55 123q-10 18 -30 31.5t-40 13.5h-432 q-23 0 -42.5 -13.5t-27.5 -31.5l-57 -123q-8 -18 -27.5 -31.5t-40.5 -13.5h-352q-10 0 -21.5 4t-18.5 12.5t-9 20.5zM643 574.5q8 -13.5 31 -13.5h182q20 0 29.5 13.5t-0.5 31.5q-20 51 -49 120t-54 128q-8 18 -18 18t-19 -18l-102 -248q-8 -18 0 -31.5zM676 1606 q0 -37 25.5 -62.5t62.5 -25.5t62.5 25.5t25.5 62.5t-25.5 62.5t-62.5 25.5t-62.5 -25.5t-25.5 -62.5z" />
<glyph unicode="&#xe6;" horiz-adv-x="2174" d="M-85.5 12.5q-6.5 12.5 5.5 28.5l934 1419q10 16 32.5 28.5t43.5 12.5h985q23 0 36 -14t13 -35v-283q0 -20 -13.5 -34.5t-35.5 -14.5h-637q-20 0 -34.5 -14.5t-14.5 -34.5v-82q0 -20 14 -34.5t35 -14.5h555q23 0 36 -14.5t13 -34.5v-285q0 -20 -13.5 -34.5t-35.5 -14.5 h-555q-20 0 -34.5 -14.5t-14.5 -34.5v-76q0 -20 14 -34.5t35 -14.5h637q23 0 36 -14.5t13 -34.5v-285q0 -20 -13.5 -34.5t-35.5 -14.5h-1045q-20 0 -34.5 14.5t-14.5 34.5v129q0 20 -13 34.5t-36 14.5h-215q-20 0 -42.5 -12t-33.5 -29q-23 -35 -47 -72.5t-47 -72.5 q-12 -16 -33.5 -28.5t-44.5 -12.5h-368q-20 0 -26.5 12.5zM709 623q-10 -20 1 -35t52 -15h10q23 0 39 10.5t16 32.5v138q0 23 -7 24.5t-17 -18.5z" />
<glyph unicode="&#xe7;" horiz-adv-x="1601" d="M41 748q0 160 61.5 301t169 245.5t251 166t306.5 61.5q135 0 244 -31t197 -86t158.5 -134t130.5 -173q10 -16 3.5 -35t-24.5 -27l-291 -114q-20 -8 -40.5 0t-30.5 24q-59 94 -143.5 144.5t-203.5 50.5q-78 0 -146.5 -33t-119.5 -87t-79.5 -126t-28.5 -147 q0 -78 28.5 -149t79.5 -124t120 -86t146 -33q113 0 204 54.5t145 140.5q10 16 29.5 24.5t39.5 -0.5l291 -114q18 -8 24.5 -25.5t-3.5 -36.5q-106 -174 -258 -286.5t-373 -132.5l-4 -3q-23 -4 -17 -24.5t41 -20.5q33 0 74 -22.5t72 -67.5q18 -29 28.5 -75t5.5 -89 q-4 -72 -39.5 -122t-95.5 -78q-47 -23 -92 -27t-61 -4q-68 2 -119 17.5t-82 31.5q-18 10 -24.5 31t3.5 39l37 80q8 18 26.5 25t39.5 3q20 -6 46 -11t58 -5h13.5t23.5 5t22.5 15.5t10.5 32.5q0 27 -25.5 36t-42.5 9q-23 -2 -41 -6t-32 -8q-20 -6 -43 -2t-37 20v2 q-14 14 -18.5 38t1.5 44l45 109q4 14 -5 22.5t-23 12.5q-135 27 -252 96.5t-201 169.5t-132 226t-48 268z" />
<glyph unicode="&#xe8;" horiz-adv-x="1398" d="M109 49v1401q0 20 14 34.5t35 14.5h1042q20 0 34.5 -14.5t14.5 -34.5v-279q0 -20 -14 -34.5t-35 -14.5h-637q-20 0 -34.5 -14.5t-14.5 -34.5v-86q0 -20 14.5 -34.5t34.5 -14.5h555q20 0 34.5 -14.5t14.5 -34.5v-283q0 -20 -14 -34.5t-35 -14.5h-555q-20 0 -34.5 -14.5 t-14.5 -34.5v-78q0 -20 14.5 -34.5t34.5 -14.5h637q20 0 34.5 -14.5t14.5 -34.5v-283q0 -20 -14 -34.5t-35 -14.5h-1042q-20 0 -34.5 14.5t-14.5 34.5zM266 1817q-35 29 6 49l295 127q18 8 41 2t35 -23l285 -366q12 -16 6.5 -27.5t-25.5 -11.5h-260q-20 0 -45.5 9t-42.5 21z " />
<glyph unicode="&#xe9;" horiz-adv-x="1398" d="M109 49v1401q0 20 14 34.5t35 14.5h1042q20 0 34.5 -14.5t14.5 -34.5v-279q0 -20 -14 -34.5t-35 -14.5h-637q-20 0 -34.5 -14.5t-14.5 -34.5v-86q0 -20 14.5 -34.5t34.5 -14.5h555q20 0 34.5 -14.5t14.5 -34.5v-283q0 -20 -14 -34.5t-35 -14.5h-555q-20 0 -34.5 -14.5 t-14.5 -34.5v-78q0 -20 14.5 -34.5t34.5 -14.5h637q20 0 34.5 -14.5t14.5 -34.5v-283q0 -20 -14 -34.5t-35 -14.5h-1042q-20 0 -34.5 14.5t-14.5 34.5zM393.5 1578q-6.5 11 7.5 28l283 366q12 16 35 22.5t41 -1.5l295 -127q41 -20 6 -49l-293 -220q-16 -12 -42 -21t-46 -9 h-260q-20 0 -26.5 11z" />
<glyph unicode="&#xea;" horiz-adv-x="1398" d="M109 49v1401q0 20 14 34.5t35 14.5h1042q20 0 34.5 -14.5t14.5 -34.5v-279q0 -20 -14 -34.5t-35 -14.5h-637q-20 0 -34.5 -14.5t-14.5 -34.5v-86q0 -20 14.5 -34.5t34.5 -14.5h555q20 0 34.5 -14.5t14.5 -34.5v-283q0 -20 -14 -34.5t-35 -14.5h-555q-20 0 -34.5 -14.5 t-14.5 -34.5v-78q0 -20 14.5 -34.5t34.5 -14.5h637q20 0 34.5 -14.5t14.5 -34.5v-283q0 -20 -14 -34.5t-35 -14.5h-1042q-20 0 -34.5 14.5t-14.5 34.5zM204 1572q-5 11 7 27l281 355q12 16 35.5 27.5t43.5 11.5h189q20 0 43.5 -11.5t36.5 -27.5l284 -352q12 -16 7 -27.5 t-25 -11.5h-293q-20 0 -44 11t-36 28l-37 43q-12 16 -30.5 15t-30.5 -18l-33 -43q-12 -16 -34.5 -27t-43.5 -11h-295q-20 0 -25 11z" />
<glyph unicode="&#xeb;" horiz-adv-x="1398" d="M109 49v1401q0 20 14 34.5t35 14.5h1042q20 0 34.5 -14.5t14.5 -34.5v-279q0 -20 -14 -34.5t-35 -14.5h-637q-20 0 -34.5 -14.5t-14.5 -34.5v-86q0 -20 14.5 -34.5t34.5 -14.5h555q20 0 34.5 -14.5t14.5 -34.5v-283q0 -20 -14 -34.5t-35 -14.5h-555q-20 0 -34.5 -14.5 t-14.5 -34.5v-78q0 -20 14.5 -34.5t34.5 -14.5h637q20 0 34.5 -14.5t14.5 -34.5v-283q0 -20 -14 -34.5t-35 -14.5h-1042q-20 0 -34.5 14.5t-14.5 34.5zM236 1782q0 41 15 77.5t43 63.5t64.5 42t79.5 15q86 0 141.5 -57t55.5 -141q0 -86 -55.5 -142.5t-141.5 -56.5 q-43 0 -79.5 15.5t-64.5 42t-43 62.5t-15 79zM694 1782q0 41 15.5 77.5t42 63.5t63.5 42t80 15q84 0 141.5 -57t57.5 -141q0 -86 -57.5 -142.5t-141.5 -56.5q-86 0 -143.5 56.5t-57.5 142.5z" />
<glyph unicode="&#xec;" horiz-adv-x="696" d="M-164 1817q-35 29 6 49l295 127q18 8 41 2t35 -23l285 -366q12 -16 6.5 -27.5t-25.5 -11.5h-260q-20 0 -46 9t-42 21zM127 49v1399q0 20 13.5 34.5t35.5 14.5h309q20 0 35 -14.5t15 -34.5v-1399q0 -20 -15 -34.5t-35 -14.5h-309q-23 0 -36 14.5t-13 34.5z" />
<glyph unicode="&#xed;" horiz-adv-x="696" d="M127 49v1399q0 20 13.5 34.5t35.5 14.5h309q20 0 35 -14.5t15 -34.5v-1399q0 -20 -15 -34.5t-35 -14.5h-309q-23 0 -36 14.5t-13 34.5zM141.5 1578q-6.5 11 8.5 28l282 366q12 16 35 22.5t41 -1.5l295 -127q41 -20 6 -49l-293 -220q-16 -12 -41.5 -21t-46.5 -9h-260 q-20 0 -26.5 11z" />
<glyph unicode="&#xee;" horiz-adv-x="696" d="M-134 1572q-5 11 7 27l281 355q12 16 35.5 27.5t43.5 11.5h189q20 0 43.5 -11.5t36.5 -27.5l284 -352q12 -16 7 -27.5t-25 -11.5h-293q-20 0 -43.5 11t-36.5 28l-37 43q-12 16 -30.5 15t-30.5 -18l-33 -43q-12 -16 -34.5 -27t-43.5 -11h-295q-20 0 -25 11zM127 49v1399 q0 20 13.5 34.5t35.5 14.5h309q20 0 35 -14.5t15 -34.5v-1399q0 -20 -15 -34.5t-35 -14.5h-309q-23 0 -36 14.5t-13 34.5z" />
<glyph unicode="&#xef;" horiz-adv-x="696" d="M-100 1782q0 41 15 77.5t43 63.5t64.5 42t79.5 15q86 0 141.5 -57t55.5 -141q0 -86 -55.5 -142.5t-141.5 -56.5q-43 0 -79.5 15.5t-64.5 42t-43 62.5t-15 79zM127 49v1399q0 20 13.5 34.5t35.5 14.5h309q20 0 35 -14.5t15 -34.5v-1399q0 -20 -15 -34.5t-35 -14.5h-309 q-23 0 -36 14.5t-13 34.5zM358 1782q0 41 15.5 77.5t42 63.5t63.5 42t80 15q84 0 141.5 -57t57.5 -141q0 -86 -57.5 -142.5t-141.5 -56.5q-86 0 -143.5 56.5t-57.5 142.5z" />
<glyph unicode="&#xf0;" horiz-adv-x="1671" d="M29 604v277q0 23 13 36t36 13h51q20 0 34.5 14t14.5 35v471q0 23 13.5 36t35.5 13h557q322 0 527 -188q111 -102 168 -243.5t57 -317.5q0 -160 -49 -294t-141 -235q-8 -8 -14.5 -13t-10.5 -9l-10 -11l-11 -10q-4 -4 -12 -9t-16 -11q-98 -78 -221 -118t-267 -40h-557 q-23 0 -36 14.5t-13 34.5v457q0 23 -14 36t-35 13h-51q-23 0 -36 14.5t-13 34.5zM584 426q0 -20 13 -34.5t36 -14.5h151q59 0 121 14.5t111 54t80.5 112.5t31.5 190t-31.5 189.5t-81.5 112.5t-111.5 54t-119.5 14h-151q-23 0 -36 -13t-13 -36v-90q0 -20 13 -34.5t36 -14.5 h135q20 0 34.5 -13.5t14.5 -35.5v-277q0 -20 -14.5 -34.5t-34.5 -14.5h-135q-23 0 -36 -13.5t-13 -35.5v-80z" />
<glyph unicode="&#xf1;" horiz-adv-x="1716" d="M113 49v1401q0 20 14 34.5t35 14.5h307q20 0 43 -11t35 -28l532 -751q12 -16 25.5 -14.5t13.5 22.5v733q0 20 14.5 34.5t34.5 14.5h303q20 0 35 -14.5t15 -34.5v-1401q0 -20 -14.5 -34.5t-35.5 -14.5h-303q-20 0 -42.5 12.5t-34.5 28.5l-535 752q-12 16 -25.5 13 t-13.5 -24v-733q0 -20 -14.5 -34.5t-34.5 -14.5h-305q-20 0 -34.5 14.5t-14.5 34.5zM346 1681q14 49 37 100.5t55.5 94.5t77.5 70.5t107 29.5q72 2 122 -27.5t89.5 -55t73.5 -28.5t73 50q12 16 32.5 23.5t39.5 0.5l168 -61q20 -8 29.5 -26.5t2.5 -39.5q-18 -53 -45.5 -101 t-64.5 -85t-84 -58.5t-105 -17.5q-57 4 -100 34t-80 53.5t-69.5 22.5t-69.5 -56q-12 -16 -33 -25.5t-41 -5.5l-180 49q-20 4 -30.5 22.5t-4.5 36.5z" />
<glyph unicode="&#xf2;" horiz-adv-x="1695" d="M45 750q0 160 61.5 301t166 246.5t245.5 167t301 61.5t301.5 -61.5t247 -167t166.5 -247t61 -300.5q0 -160 -61 -301.5t-166.5 -247t-247 -167t-301.5 -61.5t-301 61.5t-245.5 167t-166 247t-61.5 301.5zM406 1817q-35 29 6 49l295 127q18 8 40.5 2t34.5 -23l285 -366 q12 -16 7 -27.5t-25 -11.5h-261q-20 0 -45.5 9t-42.5 21zM451 750q0 -78 28.5 -148t78.5 -123t117.5 -85t143.5 -32t143.5 32t119 85t80 123t28.5 148q0 76 -28.5 146.5t-80 122.5t-119 84t-143.5 32t-143.5 -32t-117.5 -84t-78.5 -122.5t-28.5 -146.5z" />
<glyph unicode="&#xf3;" horiz-adv-x="1695" d="M45 750q0 160 61.5 301t166 246.5t245.5 167t301 61.5t301.5 -61.5t247 -167t166.5 -247t61 -300.5q0 -160 -61 -301.5t-166.5 -247t-247 -167t-301.5 -61.5t-301 61.5t-245.5 167t-166 247t-61.5 301.5zM451 750q0 -78 28.5 -148t78.5 -123t117.5 -85t143.5 -32 t143.5 32t119 85t80 123t28.5 148q0 76 -28.5 146.5t-80 122.5t-119 84t-143.5 32t-143.5 -32t-117.5 -84t-78.5 -122.5t-28.5 -146.5zM559.5 1578q-6.5 11 7.5 28l283 366q12 16 35 22.5t41 -1.5l295 -127q41 -20 6 -49l-293 -220q-16 -12 -42 -21t-46 -9h-260 q-20 0 -26.5 11z" />
<glyph unicode="&#xf4;" horiz-adv-x="1695" d="M45 750q0 160 61.5 301t166 246.5t245.5 167t301 61.5t301.5 -61.5t247 -167t166.5 -247t61 -300.5q0 -160 -61 -301.5t-166.5 -247t-247 -167t-301.5 -61.5t-301 61.5t-245.5 167t-166 247t-61.5 301.5zM353.5 1572q-5.5 11 6.5 27l281 355q12 16 36 27.5t44 11.5h188 q20 0 44 -11.5t36 -27.5l285 -352q12 -16 7 -27.5t-26 -11.5h-292q-20 0 -44 11t-36 28l-37 43q-12 16 -30.5 15t-31.5 -18l-32 -43q-12 -16 -35 -27t-43 -11h-295q-20 0 -25.5 11zM451 750q0 -78 28.5 -148t78.5 -123t117.5 -85t143.5 -32t143.5 32t119 85t80 123t28.5 148 q0 76 -28.5 146.5t-80 122.5t-119 84t-143.5 32t-143.5 -32t-117.5 -84t-78.5 -122.5t-28.5 -146.5z" />
<glyph unicode="&#xf5;" horiz-adv-x="1695" d="M45 750q0 160 61.5 301t166 246.5t245.5 167t301 61.5t301.5 -61.5t247 -167t166.5 -247t61 -300.5q0 -160 -61 -301.5t-166.5 -247t-247 -167t-301.5 -61.5t-301 61.5t-245.5 167t-166 247t-61.5 301.5zM346 1681q14 49 37 100.5t55.5 94.5t77.5 70.5t107 29.5 q72 2 122 -27.5t89.5 -55t73.5 -28.5t73 50q12 16 32.5 23.5t39.5 0.5l168 -61q20 -8 29.5 -26.5t2.5 -39.5q-18 -53 -45.5 -101t-64.5 -85t-84 -58.5t-105 -17.5q-57 4 -100 34t-80 53.5t-69.5 22.5t-69.5 -56q-12 -16 -33 -25.5t-41 -5.5l-180 49q-20 4 -30.5 22.5 t-4.5 36.5zM451 750q0 -78 28.5 -148t78.5 -123t117.5 -85t143.5 -32t143.5 32t119 85t80 123t28.5 148q0 76 -28.5 146.5t-80 122.5t-119 84t-143.5 32t-143.5 -32t-117.5 -84t-78.5 -122.5t-28.5 -146.5z" />
<glyph unicode="&#xf6;" horiz-adv-x="1695" d="M45 750q0 160 61.5 301t166 246.5t245.5 167t301 61.5t301.5 -61.5t247 -167t166.5 -247t61 -300.5q0 -160 -61 -301.5t-166.5 -247t-247 -167t-301.5 -61.5t-301 61.5t-245.5 167t-166 247t-61.5 301.5zM389 1782q0 41 15.5 77.5t43 63.5t64.5 42t80 15q86 0 141 -57 t55 -141q0 -86 -55 -142.5t-141 -56.5q-43 0 -80 15.5t-64.5 42t-43 62.5t-15.5 79zM451 750q0 -78 28.5 -148t78.5 -123t117.5 -85t143.5 -32t143.5 32t119 85t80 123t28.5 148q0 76 -28.5 146.5t-80 122.5t-119 84t-143.5 32t-143.5 -32t-117.5 -84t-78.5 -122.5 t-28.5 -146.5zM848 1782q0 41 15.5 77.5t42 63.5t63.5 42t80 15q84 0 141 -57t57 -141q0 -86 -57 -142.5t-141 -56.5q-86 0 -143.5 56.5t-57.5 142.5z" />
<glyph unicode="&#xf7;" horiz-adv-x="1253" d="M47 621v278q0 23 14.5 36t34.5 13h1000q23 0 36 -13t13 -36v-278q0 -20 -13 -35t-36 -15h-1000q-20 0 -34.5 14.5t-14.5 35.5zM393 313q0 84 58.5 142.5t144.5 58.5t144.5 -58.5t58.5 -142.5q0 -86 -58.5 -144t-144.5 -58t-144.5 58t-58.5 144zM393 1210q0 86 58.5 144.5 t144.5 58.5t144.5 -58.5t58.5 -144.5q0 -41 -15.5 -78.5t-43 -65.5t-64.5 -44t-80 -16t-80 16t-64.5 44t-43 65.5t-15.5 78.5z" />
<glyph unicode="&#xf8;" horiz-adv-x="1732" d="M49 750q0 160 61.5 301t166 246.5t246 167t300.5 61.5q176 0 334 -76q18 -8 40 -5t36 19l55 64q14 16 33.5 17t36.5 -13l176 -156q16 -14 17 -33.5t-13 -35.5l-55 -64q-14 -16 -15.5 -37.5t9.5 -40.5q59 -92 90.5 -196.5t31.5 -218.5q0 -160 -61 -301.5t-166.5 -247 t-247 -167t-301.5 -61.5q-88 0 -171 19.5t-158 54.5q-18 8 -40 4t-36 -20l-60 -66q-14 -16 -33.5 -17t-35.5 13l-178 154q-16 12 -17.5 31.5t12.5 35.5l60 72q14 16 15 38.5t-11 39.5q-57 92 -89 196.5t-32 221.5zM455 750q0 -42 10 -93q4 -20 19.5 -23t29.5 13l385 434 q14 16 10 30.5t-24 18.5q-16 4 -30.5 4.5t-31.5 0.5q-76 0 -143.5 -32t-117.5 -84t-78.5 -123t-28.5 -146zM744 386.5q4 -13.5 24 -17.5q27 -6 55 -7q76 0 143.5 32t119 85t80 123t28.5 148q0 41 -10 88q-4 20 -18.5 23t-28.5 -13l-383 -432q-14 -16 -10 -29.5z" />
<glyph unicode="&#xf9;" horiz-adv-x="1613" d="M111 618v830q0 20 14 34.5t35 14.5h309q20 0 34.5 -14.5t14.5 -34.5v-830q0 -80 25.5 -132t63.5 -81.5t81 -42t78 -12.5t78 12.5t80 42t62.5 82t25.5 131.5v830q0 20 14 34.5t35 14.5h309q20 0 34.5 -14.5t14.5 -34.5v-830q0 -145 -46 -263.5t-132 -202.5t-207 -130.5 t-268 -46.5t-268 46.5t-207 130.5t-133 202.5t-47 263.5zM360 1817q-35 29 7 49l295 127q18 8 40.5 2t34.5 -23l285 -366q12 -16 7 -27.5t-25 -11.5h-261q-20 0 -45.5 9t-42.5 21z" />
<glyph unicode="&#xfa;" horiz-adv-x="1613" d="M111 618v830q0 20 14 34.5t35 14.5h309q20 0 34.5 -14.5t14.5 -34.5v-830q0 -80 25.5 -132t63.5 -81.5t81 -42t78 -12.5t78 12.5t80 42t62.5 82t25.5 131.5v830q0 20 14 34.5t35 14.5h309q20 0 34.5 -14.5t14.5 -34.5v-830q0 -145 -46 -263.5t-132 -202.5t-207 -130.5 t-268 -46.5t-268 46.5t-207 130.5t-133 202.5t-47 263.5zM485.5 1578q-6.5 11 8.5 28l282 366q12 16 35 22.5t41 -1.5l295 -127q41 -20 6 -49l-293 -220q-16 -12 -41.5 -21t-46.5 -9h-260q-20 0 -26.5 11z" />
<glyph unicode="&#xfb;" horiz-adv-x="1613" d="M111 618v830q0 20 14 34.5t35 14.5h309q20 0 34.5 -14.5t14.5 -34.5v-830q0 -80 25.5 -132t63.5 -81.5t81 -42t78 -12.5t78 12.5t80 42t62.5 82t25.5 131.5v830q0 20 14 34.5t35 14.5h309q20 0 34.5 -14.5t14.5 -34.5v-830q0 -145 -46 -263.5t-132 -202.5t-207 -130.5 t-268 -46.5t-268 46.5t-207 130.5t-133 202.5t-47 263.5zM300.5 1572q-5.5 11 6.5 27l281 355q12 16 36 27.5t44 11.5h188q20 0 44 -11.5t36 -27.5l285 -352q12 -16 7 -27.5t-26 -11.5h-293q-20 0 -43.5 11t-36.5 28l-36 43q-12 16 -31 15t-31 -18l-33 -43 q-12 -16 -34.5 -27t-42.5 -11h-295q-20 0 -25.5 11z" />
<glyph unicode="&#xfc;" horiz-adv-x="1613" d="M111 618v830q0 20 14 34.5t35 14.5h309q20 0 34.5 -14.5t14.5 -34.5v-830q0 -80 25.5 -132t63.5 -81.5t81 -42t78 -12.5t78 12.5t80 42t62.5 82t25.5 131.5v830q0 20 14 34.5t35 14.5h309q20 0 34.5 -14.5t14.5 -34.5v-830q0 -145 -46 -263.5t-132 -202.5t-207 -130.5 t-268 -46.5t-268 46.5t-207 130.5t-133 202.5t-47 263.5zM334 1782q0 41 15.5 77.5t43 63.5t64.5 42t80 15q86 0 141 -57t55 -141q0 -86 -55 -142.5t-141 -56.5q-43 0 -80 15.5t-64.5 42t-43 62.5t-15.5 79zM793 1782q0 41 15 77.5t42 63.5t63.5 42t79.5 15q84 0 141.5 -57 t57.5 -141q0 -86 -57.5 -142.5t-141.5 -56.5q-86 0 -143 56.5t-57 142.5z" />
<glyph unicode="&#xfd;" horiz-adv-x="1452" d="M-47 1477.5q6 19.5 27 19.5h364q20 0 42 -12t32 -31l252 -438q10 -16 24.5 -16.5t24.5 16.5l250 438q10 18 31.5 30.5t41.5 12.5h369q20 0 29.5 -14t-6.5 -43l-512 -830q-10 -18 -18.5 -44.5t-8.5 -47.5v-469q0 -20 -14.5 -34.5t-34.5 -14.5h-309q-20 0 -35 14.5 t-15 34.5v467q0 20 -7 48t-17 44q-123 211 -251 414t-255 418q-10 18 -4 37.5zM424.5 1578q-6.5 11 7.5 28l283 366q12 16 35 22.5t41 -1.5l294 -127q41 -20 7 -49l-293 -220q-16 -12 -42 -21t-46 -9h-260q-20 0 -26.5 11z" />
<glyph unicode="&#xfe;" horiz-adv-x="1456" d="M109 49v1401q0 23 14 36t35 13h309q20 0 34.5 -13t14.5 -36v-96q0 -20 14.5 -34.5t34.5 -14.5h219q115 0 216.5 -44t176 -119t118.5 -176.5t44 -215.5q0 -115 -44 -215.5t-118.5 -176t-176 -118.5t-216.5 -43h-219q-20 0 -34.5 -13.5t-14.5 -36.5v-98q0 -20 -14.5 -34.5 t-34.5 -14.5h-309q-20 0 -34.5 14.5t-14.5 34.5zM516 623q0 -20 14.5 -35t34.5 -15h219q31 0 58.5 15.5t47 41t32 57.5t12.5 63q0 33 -12.5 64.5t-32 56t-47 40t-58.5 15.5h-219q-20 0 -34.5 -13.5t-14.5 -35.5v-254z" />
<glyph unicode="&#xff;" horiz-adv-x="1452" d="M-47 1477.5q6 19.5 27 19.5h364q20 0 42 -12t32 -31l252 -438q10 -16 24.5 -16.5t24.5 16.5l250 438q10 18 31.5 30.5t41.5 12.5h369q20 0 29.5 -14t-6.5 -43l-512 -830q-10 -18 -18.5 -44.5t-8.5 -47.5v-469q0 -20 -14.5 -34.5t-34.5 -14.5h-309q-20 0 -35 14.5 t-15 34.5v467q0 20 -7 48t-17 44q-123 211 -251 414t-255 418q-10 18 -4 37.5zM270 1782q0 41 15.5 77.5t43 63.5t64.5 42t80 15q86 0 141.5 -57t55.5 -141q0 -86 -55.5 -142.5t-141.5 -56.5q-43 0 -80 15.5t-64.5 42t-43 62.5t-15.5 79zM729 1782q0 41 15.5 77.5t42 63.5 t63.5 42t80 15q84 0 141 -57t57 -141q0 -86 -57 -142.5t-141 -56.5q-86 0 -143.5 56.5t-57.5 142.5z" />
<glyph unicode="&#x152;" horiz-adv-x="2375" d="M61 750q0 160 60.5 301t166 246.5t247 167t301.5 61.5q37 0 73.5 -4t71.5 -11q20 -4 48 -8t50 -4h1022q20 0 34.5 -14.5t14.5 -34.5v-281q0 -20 -14 -34.5t-35 -14.5h-637q-23 0 -36 -14.5t-13 -34.5v-90q0 -20 13.5 -34.5t35.5 -14.5h555q20 0 34.5 -14.5t14.5 -34.5 v-283q0 -20 -14 -34.5t-35 -14.5h-555q-23 0 -36 -14.5t-13 -34.5v-72q0 -20 13.5 -34.5t35.5 -14.5h637q20 0 34.5 -14.5t14.5 -34.5v-283q0 -20 -14 -34.5t-35 -14.5h-1022q-23 0 -50.5 -3t-47.5 -7q-76 -16 -145 -17q-160 0 -301.5 61.5t-247 167t-166 247t-60.5 301.5z M467 750q0 -92 28.5 -166t79 -125t117 -79t144.5 -28q45 0 77.5 9.5t55.5 21.5q18 10 29.5 34t11.5 44v577q0 20 -11.5 44t-29.5 34q-25 14 -57.5 22.5t-75.5 8.5q-78 0 -144.5 -25.5t-117 -76t-79 -125t-28.5 -170.5z" />
<glyph unicode="&#x153;" horiz-adv-x="2375" d="M61 750q0 160 60.5 301t166 246.5t247 167t301.5 61.5q37 0 73.5 -4t71.5 -11q20 -4 48 -8t50 -4h1022q20 0 34.5 -14.5t14.5 -34.5v-281q0 -20 -14 -34.5t-35 -14.5h-637q-23 0 -36 -14.5t-13 -34.5v-90q0 -20 13.5 -34.5t35.5 -14.5h555q20 0 34.5 -14.5t14.5 -34.5 v-283q0 -20 -14 -34.5t-35 -14.5h-555q-23 0 -36 -14.5t-13 -34.5v-72q0 -20 13.5 -34.5t35.5 -14.5h637q20 0 34.5 -14.5t14.5 -34.5v-283q0 -20 -14 -34.5t-35 -14.5h-1022q-23 0 -50.5 -3t-47.5 -7q-76 -16 -145 -17q-160 0 -301.5 61.5t-247 167t-166 247t-60.5 301.5z M467 750q0 -92 28.5 -166t79 -125t117 -79t144.5 -28q45 0 77.5 9.5t55.5 21.5q18 10 29.5 34t11.5 44v577q0 20 -11.5 44t-29.5 34q-25 14 -57.5 22.5t-75.5 8.5q-78 0 -144.5 -25.5t-117 -76t-79 -125t-28.5 -170.5z" />
<glyph unicode="&#x178;" horiz-adv-x="1452" d="M-47 1477.5q6 19.5 27 19.5h364q20 0 42 -12t32 -31l252 -438q10 -16 24.5 -16.5t24.5 16.5l250 438q10 18 31.5 30.5t41.5 12.5h369q20 0 29.5 -14t-6.5 -43l-512 -830q-10 -18 -18.5 -44.5t-8.5 -47.5v-469q0 -20 -14.5 -34.5t-34.5 -14.5h-309q-20 0 -35 14.5 t-15 34.5v467q0 20 -7 48t-17 44q-123 211 -251 414t-255 418q-10 18 -4 37.5zM270 1782q0 41 15.5 77.5t43 63.5t64.5 42t80 15q86 0 141.5 -57t55.5 -141q0 -86 -55.5 -142.5t-141.5 -56.5q-43 0 -80 15.5t-64.5 42t-43 62.5t-15.5 79zM729 1782q0 41 15.5 77.5t42 63.5 t63.5 42t80 15q84 0 141 -57t57 -141q0 -86 -57 -142.5t-141 -56.5q-86 0 -143.5 56.5t-57.5 142.5z" />
<glyph unicode="&#x2c6;" horiz-adv-x="882" d="M-45.5 1428.5q-5.5 11.5 6.5 27.5l281 354q12 16 36 27.5t44 11.5h188q20 0 44 -11t36 -28l284 -352q12 -16 7.5 -27.5t-25.5 -11.5h-293q-20 0 -43.5 11.5t-36.5 27.5l-37 43q-12 16 -30.5 15.5t-30.5 -17.5l-33 -43q-12 -16 -34.5 -27.5t-43.5 -11.5h-294 q-20 0 -25.5 11.5z" />
<glyph unicode="&#x2dc;" horiz-adv-x="968" d="M25 1538q14 49 36.5 100.5t55.5 94.5t78 70.5t106 29.5q72 2 122 -27.5t90 -55.5t74 -29t72 51q12 16 33 23t39 1l168 -61q20 -8 29.5 -26.5t3.5 -39.5q-18 -53 -46 -101t-65 -85t-84 -58.5t-104 -17.5t-100.5 33.5t-80 53.5t-69.5 23t-70 -57q-12 -16 -32.5 -25 t-40.5 -5l-181 49q-20 4 -30.5 22.5t-3.5 36.5z" />
<glyph unicode="&#x2000;" horiz-adv-x="998" />
<glyph unicode="&#x2001;" horiz-adv-x="1997" />
<glyph unicode="&#x2002;" horiz-adv-x="998" />
<glyph unicode="&#x2003;" horiz-adv-x="1997" />
<glyph unicode="&#x2004;" horiz-adv-x="665" />
<glyph unicode="&#x2005;" horiz-adv-x="499" />
<glyph unicode="&#x2006;" horiz-adv-x="332" />
<glyph unicode="&#x2007;" horiz-adv-x="332" />
<glyph unicode="&#x2008;" horiz-adv-x="249" />
<glyph unicode="&#x2009;" horiz-adv-x="399" />
<glyph unicode="&#x200a;" horiz-adv-x="110" />
<glyph unicode="&#x2010;" horiz-adv-x="837" d="M43 631v276q0 23 14.5 36t34.5 13h653q20 0 35 -13t15 -36v-276q0 -20 -15 -34.5t-35 -14.5h-653q-20 0 -34.5 14t-14.5 35z" />
<glyph unicode="&#x2011;" horiz-adv-x="837" d="M43 631v276q0 23 14.5 36t34.5 13h653q20 0 35 -13t15 -36v-276q0 -20 -15 -34.5t-35 -14.5h-653q-20 0 -34.5 14t-14.5 35z" />
<glyph unicode="&#x2012;" horiz-adv-x="837" d="M43 631v276q0 23 14.5 36t34.5 13h653q20 0 35 -13t15 -36v-276q0 -20 -15 -34.5t-35 -14.5h-653q-20 0 -34.5 14t-14.5 35z" />
<glyph unicode="&#x2013;" horiz-adv-x="1011" d="M25 631v276q0 20 14 34.5t35 14.5h815q20 0 34.5 -14t14.5 -35v-276q0 -20 -14.5 -34.5t-34.5 -14.5h-815q-20 0 -34.5 14t-14.5 35z" />
<glyph unicode="&#x2014;" horiz-adv-x="1507" d="M35 631v276q0 20 13 34.5t36 14.5h1257q20 0 35 -14t15 -35v-276q0 -20 -15 -34.5t-35 -14.5h-1257q-23 0 -36 14t-13 35z" />
<glyph unicode="&#x2018;" horiz-adv-x="503" d="M31 1137q0 135 75.5 241.5t229.5 169.5q20 8 41.5 1t34.5 -23l37 -53q12 -16 10 -37t-19 -35q-23 -23 -41 -43.5t-32 -38.5q-12 -16 -5 -33.5t23 -28.5q35 -23 53.5 -64.5t22.5 -88.5q4 -88 -55.5 -148.5t-145.5 -64.5q-53 -2 -95 17.5t-72 53t-46 78.5t-16 97z" />
<glyph unicode="&#x2019;" horiz-adv-x="503" d="M45 1346q-4 88 55.5 148t145.5 65q51 2 94 -17.5t72.5 -53.5t46 -79t16.5 -96q0 -135 -75.5 -241t-229.5 -169q-18 -8 -41 -1t-35 24l-37 53q-10 16 -8 36.5t19 35.5q23 20 40 40.5t33 41.5q12 16 4 32.5t-24 28.5q-35 23 -53.5 63.5t-22.5 88.5z" />
<glyph unicode="&#x201a;" horiz-adv-x="501" d="M27 184q-2 43 12 83t42 70t65.5 47t80.5 19q80 4 138.5 -43t76.5 -124q6 -18 8.5 -40t2.5 -44q0 -55 -20.5 -111.5t-58.5 -106t-95.5 -89t-131.5 -62.5q-18 -8 -37.5 2t-27.5 29l-45 106q-10 18 -2 36.5t26 27.5q8 4 14.5 6t12.5 4q37 16 4 45q-59 51 -65 145z" />
<glyph unicode="&#x201c;" horiz-adv-x="993" d="M29 1137q0 135 76.5 241.5t230.5 169.5q18 8 40.5 1t33.5 -23l39 -53q10 -16 8 -37t-19 -35q-23 -23 -40 -43.5t-33 -38.5q-12 -16 -5 -33.5t23 -28.5q37 -23 55.5 -64.5t20.5 -88.5q4 -88 -55.5 -148.5t-145.5 -64.5q-53 -2 -95 17.5t-72 53t-46 78.5t-16 97zM510 1137 q0 135 76.5 241.5t230.5 169.5q18 8 41 1t33 -23l39 -53q10 -16 8 -37t-18 -35q-23 -23 -40.5 -43.5t-33.5 -38.5q-12 -16 -5 -33.5t23 -28.5q37 -23 55.5 -64.5t20.5 -88.5q4 -88 -55.5 -148.5t-145.5 -64.5q-53 -2 -95 17.5t-71.5 53t-46 78.5t-16.5 97z" />
<glyph unicode="&#x201d;" horiz-adv-x="993" d="M45 1346q-4 88 55.5 148t145.5 65q51 2 94 -17.5t72.5 -53.5t46 -79t16.5 -96q0 -135 -76.5 -241t-230.5 -169q-18 -8 -41 -1t-33 24l-37 53q-12 16 -10 36.5t19 35.5q23 20 41 40.5t32 41.5q12 16 5 32.5t-23 28.5q-37 23 -55.5 63.5t-20.5 88.5zM526 1346 q-4 88 55.5 148t145.5 65q51 2 94 -17.5t73 -53.5t46 -79t16 -96q0 -135 -76.5 -241t-230.5 -169q-18 -8 -40.5 -1t-33.5 24l-38 53q-10 16 -8.5 36.5t18.5 35.5q23 20 41 40.5t33 41.5q12 16 4.5 32.5t-23.5 28.5q-37 23 -55.5 63.5t-20.5 88.5z" />
<glyph unicode="&#x201e;" horiz-adv-x="1019" d="M45 207q-4 88 55.5 148.5t145.5 64.5q51 2 94 -17.5t72.5 -53.5t46 -79t16.5 -96q0 -135 -76.5 -241t-230.5 -169q-18 -8 -41 -0.5t-33 23.5l-37 53q-12 16 -10 37t19 35q23 20 41 40.5t32 41.5q12 16 5 32.5t-23 28.5q-37 23 -55.5 64t-20.5 88zM526 207 q-4 88 55.5 148.5t145.5 64.5q51 2 94 -17.5t73 -53.5t46 -79t16 -96q0 -135 -76.5 -241t-230.5 -169q-18 -8 -40.5 -0.5t-33.5 23.5l-38 53q-10 16 -8.5 37t18.5 35q23 20 41 40.5t33 41.5q12 16 4.5 32.5t-23.5 28.5q-37 23 -55.5 64t-20.5 88z" />
<glyph unicode="&#x2022;" horiz-adv-x="741" d="M70 821q0 57 22.5 109.5t60 90.5t89 60.5t110.5 22.5q57 0 109.5 -22.5t90.5 -60.5t60.5 -90t22.5 -110q0 -59 -22.5 -110.5t-60.5 -89t-90 -60t-110 -22.5q-59 0 -110.5 22.5t-89 60t-60 89t-22.5 110.5z" />
<glyph unicode="&#x2026;" horiz-adv-x="1488" d="M53 197q0 43 16.5 79.5t45 65.5t66.5 45t81 16t82 -16t67.5 -45t45 -65.5t16.5 -79.5t-16.5 -82t-45 -68t-67.5 -45t-82 -16t-81 16t-66.5 45t-45 68t-16.5 82zM535 197q0 43 16 79.5t45 65.5t66.5 45t80.5 16t82 -16t68 -45t45 -65.5t16 -79.5t-16 -82t-45 -68t-68 -45 t-82 -16t-80.5 16t-66.5 45t-45 68t-16 82zM1016 197q0 43 16.5 79.5t45 65.5t65.5 45t80 16t81.5 -16t67.5 -45t45.5 -65.5t16.5 -79.5t-16.5 -82t-45.5 -68t-67.5 -45t-81.5 -16t-80 16t-65.5 45t-45 68t-16.5 82z" />
<glyph unicode="&#x202f;" horiz-adv-x="399" />
<glyph unicode="&#x2039;" horiz-adv-x="831" d="M43 751.5q0 24.5 10 43.5l269 422q10 16 31.5 28t41.5 12h344q23 0 29 -12t-6 -28q-29 -45 -64.5 -98.5t-72.5 -109t-73 -110.5t-69 -104q-12 -16 -12 -41t12 -41l283 -420q10 -16 5 -28.5t-28 -12.5h-348q-20 0 -41.5 12t-34.5 29l-266 418q-10 16 -10 40.5z" />
<glyph unicode="&#x203a;" horiz-adv-x="829" d="M55.5 264.5q-6.5 12.5 3.5 28.5l285 420q10 16 10 40.5t-10 41.5q-33 49 -69.5 104t-73.5 110.5t-73 108.5t-65 99q-10 16 -3.5 28t26.5 12h344q20 0 43 -12t33 -28l266 -422q10 -18 10 -43t-10 -41l-266 -418q-10 -16 -32.5 -28.5t-43.5 -12.5h-348q-20 0 -26.5 12.5z " />
<glyph unicode="&#x205f;" horiz-adv-x="499" />
<glyph unicode="&#x20ac;" horiz-adv-x="1404" d="M37 526v146q0 20 14.5 34.5t34.5 14.5h35q20 0 34.5 6t14.5 31q0 23 -14.5 29t-34.5 6h-35q-20 0 -34.5 14t-14.5 35v145q0 20 14.5 34.5t34.5 14.5h86q20 0 37.5 14.5t23.5 34.5q25 92 77 172t128 138.5t174.5 92.5t214.5 34q121 0 212 -37t154.5 -87t103.5 -105.5 t59 -92.5q10 -18 4 -37.5t-25 -29.5l-225 -125q-18 -10 -37.5 -4t-30.5 22q-12 20 -32.5 43t-47 42t-60.5 32.5t-75 13.5q-47 0 -92 -18.5t-71 -57.5q-12 -16 -2 -30.5t30 -14.5h205q20 0 34.5 -14t14.5 -35v-145q0 -20 -14 -34.5t-35 -14.5h-289q-20 0 -34.5 -4.5 t-14.5 -30.5q0 -29 14.5 -33t34.5 -4h289q20 0 34.5 -14.5t14.5 -34.5v-146q0 -20 -14 -34.5t-35 -14.5h-240q-20 0 -30.5 -14t2.5 -31q27 -41 80 -67.5t118 -26.5q45 0 79 13.5t59.5 34t43 44t27.5 43.5q10 18 27.5 26.5t36.5 0.5l243 -105q18 -10 27.5 -28.5t-0.5 -36.5 q-18 -41 -56 -101.5t-102.5 -117t-159 -97.5t-225.5 -41q-92 0 -190 27t-183 82t-150.5 141t-92.5 207q-4 20 -21.5 33.5t-37.5 13.5h-66q-20 0 -34.5 14.5t-14.5 34.5z" />
<glyph unicode="&#x2122;" horiz-adv-x="1771" d="M57 1241v211q0 20 14.5 34.5t34.5 14.5h623q20 0 34.5 -14t14.5 -35v-211q0 -20 -14 -34.5t-35 -14.5h-104q-20 0 -35 -14.5t-15 -34.5v-422q0 -20 -13 -34.5t-36 -14.5h-217q-20 0 -34.5 14t-14.5 35v422q0 20 -13.5 34.5t-35.5 14.5h-105q-20 0 -34.5 14.5t-14.5 34.5z M838 721v731q0 20 14 34.5t35 14.5h112q20 0 42 -12t32 -31l156 -278q10 -16 24.5 -16.5t24.5 16.5l154 278q10 18 30.5 30.5t40.5 12.5h113q20 0 34.5 -14.5t14.5 -34.5v-731q0 -20 -14.5 -34.5t-34.5 -14.5h-201q-20 0 -34.5 14t-14.5 35v100q0 45 -29 10l-57 -83 q-12 -16 -28.5 -16.5t-26.5 16.5l-58 83q-12 16 -20 14.5t-8 -22.5v-102q0 -20 -14.5 -34.5t-34.5 -14.5h-203q-20 0 -34.5 14t-14.5 35z" />
<glyph unicode="&#x25fc;" horiz-adv-x="1495" d="M0 0v1495h1495v-1495h-1495z" />
</font>
</defs>
</svg>
